<svg xmlns="http://www.w3.org/2000/svg" viewBox="0 0 18 18">
  <defs>
    <style>
      .cls-1 {
        fill: rgba(230,177,177,0);
      }

      .cls-2 {
        fill: #0f6dd9;
      }
    </style>
  </defs>
  <g id="nav_left_icon1_selected" transform="translate(0)">
    <rect id="矩形_15" data-name="矩形 15" class="cls-1" width="18" height="18" transform="translate(0)"/>
    <path id="路径_117" data-name="路径 117" class="cls-2" d="M62.514,119.749h6.75a1.249,1.249,0,0,0,1.125-1.194v-3.582a1.249,1.249,0,0,0-1.125-1.194h-6.75a1.249,1.249,0,0,0-1.125,1.194v3.582a1.249,1.249,0,0,0,1.125,1.194Zm0,4.776h-4.5a1.249,1.249,0,0,0-1.125,1.194V129.3a1.249,1.249,0,0,0,1.125,1.194h4.5a1.249,1.249,0,0,0,1.125-1.194v-3.582a1.249,1.249,0,0,0-1.125-1.194Zm11.25,0h-4.5a1.249,1.249,0,0,0-1.125,1.194V129.3a1.249,1.249,0,0,0,1.125,1.194h4.5a1.249,1.249,0,0,0,1.125-1.194v-3.582a1.249,1.249,0,0,0-1.125-1.194Zm-10.125-3.582h4.5v2.388h-4.5Zm6.75,0h2.25v2.388h-2.25Zm-11.25,0h2.25v2.388h-2.25Z" transform="translate(-56.889 -113.387)"/>
  </g>
</svg>
