<svg xmlns="http://www.w3.org/2000/svg" viewBox="0 0 18 18">
  <defs>
    <style>
      .cls-1 {
        fill: rgba(230,177,177,0);
      }

      .cls-2 {
        fill: rgba(0,0,0,0.6);
      }

      .cls-3 {
        fill: #fff;
      }

      .cls-4 {
        fill: #2c2c2c;
      }
    </style>
  </defs>
  <g id="nav_left_icon2_unselected" transform="translate(0)">
    <rect id="矩形_15" data-name="矩形 15" class="cls-1" width="18" height="18" transform="translate(0)"/>
    <path id="路径_141" data-name="路径 141" class="cls-2" d="M139.075,102H126.7a1.948,1.948,0,0,0-1.9,2V118a1.951,1.951,0,0,0,1.9,2h12.372a1.948,1.948,0,0,0,1.9-2V104A1.95,1.95,0,0,0,139.075,102Zm-9.984,2.518a1.417,1.417,0,0,1,1.427,1.45,1.427,1.427,0,0,1-2.854,0A1.417,1.417,0,0,1,129.092,104.518Z" transform="translate(-123.8 -102)"/>
    <rect id="矩形_46" data-name="矩形 46" class="cls-3" width="10" height="2" rx="1" transform="translate(4 8)"/>
    <rect id="矩形_47" data-name="矩形 47" class="cls-4" width="7" height="2" rx="1" transform="translate(4 12)"/>
  </g>
</svg>
