<svg xmlns="http://www.w3.org/2000/svg" viewBox="0 0 18 18">
  <defs>
    <style>
      .cls-1 {
        fill: rgba(230,177,177,0);
      }

      .cls-2 {
        fill: rgba(0,0,0,0.6);
      }
    </style>
  </defs>
  <g id="nav_left_icon3_unselected" transform="translate(0)">
    <rect id="矩形_15" data-name="矩形 15" class="cls-1" width="18" height="18" transform="translate(0)"/>
    <g id="组_42" data-name="组 42" transform="translate(-32.256 -49.176)">
      <path id="路径_142" data-name="路径 142" class="cls-2" d="M48.939,102.382H33.582a1.272,1.272,0,1,1,0-2.542H48.93a1.3,1.3,0,0,1,1.326,1.271A1.288,1.288,0,0,1,48.939,102.382Z" transform="translate(0 -48.771)"/>
      <path id="路径_143" data-name="路径 143" class="cls-2" d="M631.925,52.341m-2.165,0a2.165,2.165,0,1,0,2.165-2.165A2.165,2.165,0,0,0,629.76,52.341Z" transform="translate(-586.007 0)"/>
      <path id="路径_144" data-name="路径 144" class="cls-2" d="M33.582,441.344H48.93a1.272,1.272,0,1,1,0,2.542H33.582a1.272,1.272,0,1,1,0-2.542Z" transform="translate(0 -384.131)"/>
      <path id="路径_145" data-name="路径 145" class="cls-2" d="M155.765,393.845m-2.165,0a2.165,2.165,0,1,0,2.165-2.165A2.165,2.165,0,0,0,153.6,393.845Z" transform="translate(-119.161 -335.36)"/>
      <path id="路径_146" data-name="路径 146" class="cls-2" d="M48.939,785.39H33.582a1.272,1.272,0,1,1,0-2.542H48.93a1.3,1.3,0,0,1,1.326,1.271A1.288,1.288,0,0,1,48.939,785.39Z" transform="translate(0 -719.491)"/>
      <path id="路径_147" data-name="路径 147" class="cls-2" d="M496.757,735.349m-2.165,0a2.165,2.165,0,1,0,2.165-2.165A2.164,2.164,0,0,0,494.592,735.349Z" transform="translate(-453.537 -670.721)"/>
    </g>
  </g>
</svg>
