<svg xmlns="http://www.w3.org/2000/svg" viewBox="0 0 18 18">
  <defs>
    <style>
      .cls-1 {
        fill: rgba(230,177,177,0);
      }

      .cls-2 {
        fill: rgba(0,0,0,0.6);
      }

      .cls-3 {
        fill: rgba(0,0,0,0.8);
      }
    </style>
  </defs>
  <g id="nav_left_icon5_unselected" transform="translate(0)">
    <rect id="矩形_15" data-name="矩形 15" class="cls-1" width="18" height="18" transform="translate(0 0)"/>
    <path id="路径_152" data-name="路径 152" class="cls-2" d="M67.471,11.509V5.171a1.892,1.892,0,0,0-.946-1.637L61.047.374a1.892,1.892,0,0,0-1.892,0l-5.478,3.16a1.892,1.892,0,0,0-.946,1.637V11.5a1.892,1.892,0,0,0,.946,1.637l5.478,3.169a1.892,1.892,0,0,0,1.892,0l5.478-3.169a1.892,1.892,0,0,0,.946-1.627Zm-4.1-1.277L60.1,12.124l-3.273-1.892V6.448L60.1,4.556l3.273,1.892Z" transform="translate(-51.004 0.691)"/>
    <path id="路径_153" data-name="路径 153" class="cls-3" d="M58.247,9.409V7.271L60.1,6.192l1.864,1.078V9.409L60.1,10.488,58.247,9.409Z" transform="translate(-51.003 0.691)"/>
  </g>
</svg>
