<svg xmlns="http://www.w3.org/2000/svg" xmlns:xlink="http://www.w3.org/1999/xlink" viewBox="0 0 1600 980">
  <defs>
    <style>
      .cls-1 {
        fill: #fff;
      }

      .cls-2 {
        opacity: 0.6;
        clip-path: url(#clip-path);
      }

      .cls-3 {
        opacity: 0.4;
      }

      .cls-4 {
        fill: #c5cbe7;
      }

      .cls-5 {
        fill: #adb4db;
      }

      .cls-6 {
        fill: #98a4d2;
      }

      .cls-7 {
        fill: #8292c9;
      }
    </style>
    <clipPath id="clip-path">
      <rect id="bg" class="cls-1" width="1600" height="980" rx="12"/>
    </clipPath>
  </defs>
  <g id="架构_bg" class="cls-2">
    <g id="剪影" class="cls-3" transform="translate(-20.107 337.209)">
      <g id="组_34" data-name="组 34" transform="translate(83.079)">
        <path id="路径_126" data-name="路径 126" class="cls-4" d="M22.8,659.549V637.961h99.477V477.54h46.641v-266.5h21.134v-18.61h54.293v17.121h19.677V365.134h39.353V340.569h98.019V306.7h13.482V69.23h19.677V41.687h14.94V6.328H463.34V40.2h13.482V70.719h22.592V328.286h63.4V275.8h69.233v58.436H671.4V209.552h37.532V275.8h13.846v90.818h51.014v-237.1l85.995-98.635H876.55V309.675h28.786V277.293h91.825v32.382h27.329V24.566h29.879V0h61.945V26.054h30.244V291.065h54.293v26.427h52.835v-123.2l13.482-10.794h71.055l13.482,13.772V343.546h37.532v84.863h36.438v231.14Z" transform="translate(-22.8)"/>
      </g>
      <g id="组_35" data-name="组 35" transform="translate(21.134 160.899)">
        <rect id="矩形_26" data-name="矩形 26" class="cls-5" width="0.729" height="1.117" transform="translate(613.622 393.951)"/>
        <path id="路径_127" data-name="路径 127" class="cls-5" d="M1541.312,480.429V429.437h-24.049v-113.9H1484.1v67.742h-34.616V360.207h-33.159V280.182h-64.86V246.312h-95.1v29.4h-43.726v-40.2h-40.811V141.35h-16.761l-55.751,38.337V218.4H1064.7v38.337h-36.074V144.7h-18.219v-18.61H996.923v17.121H978.7v172.7H927.326V241.473H870.118v40.2h-73.97V210.952h-14.94v-15.26H740.4v13.772H728.372v66.253H709.06v-76.3h0c-1.093-69.6-9.838-161.165-49.921-156.7-32.43,3.722-39.354,90.818-39.718,156.7h0v72.952H595.737V192.342h-95.1v78.535H443.425v36.848H425.205V147.677H408.444V104.5h-6.194v43.176H382.573v161.91H330.1V271.25H289.29v-18.61H235v20.1H177.789V372.862H144.63v152.6H5.8v17.122l1585.433,2.978V480.8h-49.92Z" transform="translate(-5.8 -42.558)"/>
      </g>
      <g id="组_36" data-name="组 36" transform="translate(26.6 435.745)">
        <path id="路径_128" data-name="路径 128" class="cls-6" d="M7.3,334.885V325.58h95.1V233.273h48.827V136.127h41.9v97.146h29.151V198.658h14.94v-18.61h96.2v18.61H348v34.615h56.479V162.926h29.515v70.347h28.422V136.127H474.8V122.355h97.29v13.772h12.389v38.337h32.795v39.082h62.31v23.077h95.1V139.477h38.26V120.122h19.312v19.355h38.625v48.759h31.337v30.149h124.619V125.705h137.008v38.337H1257.5v32.382h45.548V127.938H1320.9V116.4h40.811v11.538h16.033v68.486h46.277v41.315H1470.3V219.5h27.329v43.92h55.386v57.692h40.811v21.96H7.3Z" transform="translate(-7.3 -116.4)"/>
      </g>
      <g id="组_37" data-name="组 37" transform="translate(0 455.906)">
        <path id="路径_129" data-name="路径 129" class="cls-7" d="M1608.024,320.652H0V289.759H58.666V265.194h44.09V191.125H138.83v74.069h40.811v-35.36h8.016v-8.561H239.4v8.561h6.923v34.615h15.669V212.341h26.236v54.342h7.652V249.189h24.049V219.413H354.91v41.315h37.167V176.609h19.312V165.07h99.477v14.888h14.94v85.607h20.405V244.723h18.948v20.843h20.406V234.3h45.184v41.687H675.2v-143.3h13.482V124.5h21.5v9.305h12.389V248.072h45.184V183.309H812.94v40.57H916.06v42.8h45.184V162.837h52.107v81.885h36.074v24.193h36.438V248.072h17.855V192.614h21.5V177.726h94.011v14.888h20.406v62.531h18.219v18.61h22.592v-43.92H1383.2v24.193h89.638v31.265h49.556V267.8h29.515v17.494h37.167v20.844h40.811v14.516Z" transform="translate(0 -124.5)"/>
      </g>
      <g id="组_40" data-name="组 40" transform="translate(11 444.67)">
        <path id="路径_129-2" data-name="路径 129" class="cls-7" d="M1608.024,320.652H0V289.759H58.666V265.194h44.09V191.125H138.83v74.069h40.811v-35.36h8.016v-8.561H239.4v8.561h6.923v34.615h15.669V212.341h26.236v54.342h7.652V249.189h24.049V219.413H354.91v41.315h37.167V176.609h19.312V165.07h99.477v14.888h14.94v85.607h20.405V244.723h18.948v20.843h20.406V234.3h45.184v41.687H675.2v-143.3h13.482V124.5h21.5v9.305h12.389V248.072h45.184V183.309H812.94v40.57H916.06v42.8h45.184V162.837h52.107v81.885h36.074v24.193h36.438V248.072h17.855V192.614h21.5V177.726h94.011v14.888h20.406v62.531h18.219v18.61h22.592v-43.92H1383.2v24.193h89.638v31.265h49.556V267.8h29.515v17.494h37.167v20.844h40.811v14.516Z" transform="translate(0 -124.5)"/>
      </g>
    </g>
  </g>
</svg>
