<svg id="架构_编辑" xmlns="http://www.w3.org/2000/svg" viewBox="0 0 20 20">
  <defs>
    <style>
      .cls-1 {
        fill: rgba(255,91,91,0);
      }

      .cls-2 {
        fill: #0f6dd9;
        stroke: #0f6dd9;
        stroke-width: 0.2px;
      }
    </style>
  </defs>
  <rect id="矩形_27" data-name="矩形 27" class="cls-1" width="20" height="20"/>
  <path id="路径_155" data-name="路径 155" class="cls-2" d="M62.211,62.921a.816.816,0,0,1-.777-.518.834.834,0,0,1,.173-.921l9-9a.823.823,0,0,1,.834-.23.854.854,0,0,1,.6.6.839.839,0,0,1-.23.834l-9,8.975a.783.783,0,0,1-.6.259Zm0,0M69.028,70h-10.9a3.855,3.855,0,0,1-3.855-3.855V55.269a3.855,3.855,0,0,1,3.855-3.855h5.437a.863.863,0,1,1,0,1.726H58.126A2.124,2.124,0,0,0,56,55.269v10.9A2.124,2.124,0,0,0,58.126,68.3h10.9a2.124,2.124,0,0,0,2.129-2.129V60.706a.863.863,0,1,1,1.726,0v5.437A3.892,3.892,0,0,1,69.028,70Zm0,0" transform="translate(-53.577 -50.721)"/>
</svg>
