<svg id="架构_锁定" xmlns="http://www.w3.org/2000/svg" viewBox="0 0 20 20">
  <defs>
    <style>
      .cls-1 {
        fill: rgba(255,91,91,0);
      }

      .cls-2 {
        fill: #0f6dd9;
      }
    </style>
  </defs>
  <rect id="矩形_27" data-name="矩形 27" class="cls-1" width="20" height="20"/>
  <path id="路径_154" data-name="路径 154" class="cls-2" d="M100.083,20H87.513a2.151,2.151,0,0,1-2.164-2.135V8.8a2.151,2.151,0,0,1,2.164-2.135h12.568A2.151,2.151,0,0,1,102.246,8.8v9.063A2.15,2.15,0,0,1,100.083,20ZM87.513,8.334a.473.473,0,0,0-.475.469v9.063a.473.473,0,0,0,.475.469h12.568a.473.473,0,0,0,.475-.469V8.8a.473.473,0,0,0-.475-.469Zm0,0,10.509,0a.839.839,0,0,1-.846-.834V5a3.379,3.379,0,0,0-6.758,0V7.5a.845.845,0,0,1-1.689,0V5A5.07,5.07,0,0,1,98.867,5V7.5A.839.839,0,0,1,98.022,8.334Zm-4.224,7.5A.839.839,0,0,1,92.953,15V11.666a.846.846,0,0,1,1.691,0V15A.839.839,0,0,1,93.8,15.834Zm0,0" transform="translate(-83.579 0)"/>
</svg>
