<svg id="通知_icon" xmlns="http://www.w3.org/2000/svg" viewBox="0 0 20 20">
  <defs>
    <style>
      .cls-1 {
        fill: rgba(255,136,136,0);
      }

      .cls-2 {
        fill: #fff;
      }
    </style>
  </defs>
  <rect id="bg" class="cls-1" width="20" height="20"/>
  <path id="路径_40" data-name="路径 40" class="cls-2" d="M69.908,14.65c-1.2-1.1-2.055-4-2.055-7.427a5.886,5.886,0,0,0-3.761-5.576,1.846,1.846,0,0,0-3.671,0A5.885,5.885,0,0,0,56.66,7.223c0,3.427-.86,6.329-2.055,7.427a3.285,3.285,0,0,0-1.057,2.436c0,1.086.894.848,1.915.848h4.981A1.938,1.938,0,0,0,62.233,20a2.059,2.059,0,0,0,1.939-2.066h4.981c1.033,0,1.812.239,1.812-.848A3.3,3.3,0,0,0,69.908,14.65Z" transform="translate(-52.549)"/>
</svg>
