<svg xmlns="http://www.w3.org/2000/svg" width="637.487" height="475.733" viewBox="0 0 637.487 475.733">
  <defs>
    <style>
      .cls-1 {
        fill: rgba(24,144,255,0.2);
      }

      .cls-2, .cls-3 {
        fill: #fff;
      }

      .cls-3 {
        stroke: #b8b8b8;
      }
    </style>
  </defs>
  <g id="插图" transform="translate(-72 -392.011)">
    <path id="形状_1_拷贝" data-name="形状 1 拷贝" class="cls-1" d="M542.483,713H657.049a24.475,24.475,0,0,0,0-48.95H556.231a24.475,24.475,0,0,1,0-48.95h76.38a24.475,24.475,0,0,0,0-48.951H518.045a24.475,24.475,0,0,1,0-48.95h90.123a24.475,24.475,0,0,0,0-48.95H256.834a24.475,24.475,0,0,0,0,48.95h35.134a24.475,24.475,0,0,1,0,48.95H214.061a24.475,24.475,0,0,0,0,48.951h61.1a24.475,24.475,0,0,1,0,48.95H96.443a24.475,24.475,0,0,0,0,48.95H314.879a24.475,24.475,0,0,1,0,48.951H256.834a24.475,24.475,0,0,0,0,48.95H653.993a24.475,24.475,0,0,0,0-48.95H542.483a24.475,24.475,0,0,1,0-48.951Zm0,0" transform="translate(0 10.949)"/>
    <path id="Op_component_1" data-name="Op component 1" class="cls-2" d="M192.218,426.8a16.039,16.039,0,1,0,16.037-16.06,16.05,16.05,0,0,0-16.037,16.06Zm0,0" transform="translate(17.263 2.689)"/>
    <path id="形状_1_拷贝_5" data-name="形状 1 拷贝 5" class="cls-3" d="M600.951,717.06a16.039,16.039,0,1,0,8.021-13.911,16.064,16.064,0,0,0-8.021,13.911Zm0,0" transform="translate(75.958 44.371)"/>
    <path id="形状_1_拷贝_3" data-name="形状 1 拷贝 3" class="cls-1" d="M572.949,776.671H221.612a3.058,3.058,0,0,1,0-6.116H572.949a3.058,3.058,0,0,1,0,6.116Zm45.06,0H596.626a3.058,3.058,0,0,1,0-6.116h21.383a3.058,3.058,0,0,1,0,6.116ZM398.044,793.5H274.311a3.059,3.059,0,0,1,0-6.117H398.044a3.059,3.059,0,0,1,0,6.117ZM281.95,813.384H208.627a3.06,3.06,0,0,1,0-6.12H281.95a3.06,3.06,0,0,1,0,6.12Zm331.479,0H340a3.06,3.06,0,0,1,0-6.12H613.429a3.06,3.06,0,0,1,0,6.12ZM436.234,793.5H425.539a3.059,3.059,0,0,1,0-6.117h10.695a3.059,3.059,0,0,1,0,6.117Zm105.4,0H465.257a3.059,3.059,0,0,1,0-6.117h76.376a3.059,3.059,0,0,1,0,6.117Zm0,0" transform="translate(19.181 54.359)"/>
    <path id="形状_1_拷贝_2" data-name="形状 1 拷贝 2" class="cls-1" d="M457.8,392.011a13.766,13.766,0,1,0,13.747,13.766A13.7,13.7,0,0,0,457.8,392.011Zm0,24.476a10.708,10.708,0,1,1,10.691-10.71,10.635,10.635,0,0,1-10.691,10.71ZM399.751,491.44A13.767,13.767,0,1,0,413.5,505.207a13.7,13.7,0,0,0-13.748-13.767Zm0,24.474a10.707,10.707,0,1,1,10.691-10.706,10.635,10.635,0,0,1-10.691,10.706ZM251.579,543.451a13.766,13.766,0,1,0,13.748,13.766,13.7,13.7,0,0,0-13.748-13.766Zm0,24.473a10.706,10.706,0,1,1,10.692-10.706,10.635,10.635,0,0,1-10.692,10.706Zm316.2,64.247a13.769,13.769,0,1,0,13.75,13.77,13.7,13.7,0,0,0-13.75-13.77Zm0,24.477a10.709,10.709,0,1,1,10.695-10.707,10.635,10.635,0,0,1-10.695,10.707Zm-204.69-252.4h-3.056v7.65H352.4v3.06h7.636V422.6h3.056v-7.646h7.636V411.9h-7.636Zm181.779,21.417h-3.056v7.646h-7.639v3.06h7.639v7.65h3.056v-7.65H552.5v-3.06h-7.636Zm-18.331,97.9H523.48v7.65h-7.636v3.056h7.636v7.651h3.056V534.27h7.637v-3.056h-7.637ZM236.3,630.64h-3.056v7.65h-7.639v3.06h7.639V649H236.3V641.35h7.636v-3.06H236.3Zm0,0" transform="translate(22.058 0)"/>
    <path id="路径_177" data-name="路径 177" class="cls-2" d="M244.249,132.182c0-10.138-11.922-22.623-21.4-24.032l12.86-21.215H205.949a51.177,51.177,0,0,0,8.918-29.1V55.205c11.547-2.065,19.056-5.351,19.056-8.636,0-3.567-8.354-6.853-21.121-8.918-.563-3-9.2-27.317-19.337-27.317a12.261,12.261,0,0,0-10.421,5.914,3.965,3.965,0,0,1-4.131,3.567,4.169,4.169,0,0,1-4.13-3.286,12.256,12.256,0,0,0-10.421-6.288c-9.856,0-19.056,22.341-21.121,27.974-10.983,2.065-18.118,5.069-18.118,8.636s7.416,6.57,19.057,8.636v2.628c0,11.265,3.285,21.4,8.918,29.1H123.34l12.767,20.84c-9.481,0-21.967,13.049-21.967,24.407l.282,34.17a10.037,10.037,0,0,0,10.139,10.139H234.487a10.1,10.1,0,0,0,10.139-10.139l-.376-34.452ZM171.5,168.417h-4.788l-8.918-65.712,18.682,16.334L171.5,168.417Zm20.465,0h-4.788l-5.07-49.379,18.775-16.616-8.917,65.994ZM203.227,64.686v2.065H200.88s-1.5,12.767-9.481,12.767c-8.073,0-9.575-12.767-9.575-12.767h-5.35c-1.22,10.42-6.571,12.767-9.481,12.767-7.134,0-9.2-9.481-9.481-12.767h-2.44v-4.13h17.836v2.065H184.83V62.622h17.836v2.065h.561Zm0,0" transform="translate(246.094 544.99)"/>
  </g>
</svg>
