<svg xmlns="http://www.w3.org/2000/svg" width="18.284" height="18.286" viewBox="0 0 18.284 18.286">
  <defs>
    <style>
      .cls-1 {
        fill: #656363;
      }
    </style>
  </defs>
  <g id="bianma_icon_" data-name="bianma_icon " transform="translate(-861.846 -388.846)">
    <g id="组_120" data-name="组 120" transform="translate(797.906 324.183)">
      <path id="路径_191" data-name="路径 191" class="cls-1" d="M79.616,64.663H66.554a2.613,2.613,0,0,0-2.614,2.613v9.118a2.615,2.615,0,0,0,2.614,2.615h2.722a1.3,1.3,0,0,1,1.127.644l1.553,2.65a1.306,1.306,0,0,0,2.253,0l1.556-2.65a1.3,1.3,0,0,1,1.127-.644h2.725A2.608,2.608,0,0,0,82.224,76.4V67.269A2.607,2.607,0,0,0,79.616,64.663Zm1.3,11.738a1.3,1.3,0,0,1-1.3,1.3H76.892a2.607,2.607,0,0,0-2.252,1.288l-1.556,2.65a.006.006,0,0,1,0,0h0l-1.554-2.65A2.608,2.608,0,0,0,69.276,77.7H66.554a1.31,1.31,0,0,1-1.309-1.311V67.276a1.308,1.308,0,0,1,1.309-1.308H79.616a1.3,1.3,0,0,1,1.3,1.3Z"/>
      <path id="路径_192" data-name="路径 192" class="cls-1" d="M388.577,288.091a.652.652,0,0,0-.652.652v3.267l-2.748-3.659a.652.652,0,0,0-1.174.392v5.22a.652.652,0,0,0,1.3,0V290.7l2.748,3.659a.652.652,0,0,0,1.174-.392v-5.222A.652.652,0,0,0,388.577,288.091Z" transform="translate(-313.53 -218.868)"/>
    </g>
  </g>
</svg>
