<svg xmlns="http://www.w3.org/2000/svg" viewBox="0 0 17.999 17.999">
  <defs>
    <style>
      .cls-1 {
        fill: rgba(255,159,159,0);
      }

      .cls-2 {
        fill: #189271;
      }
    </style>
  </defs>
  <g id="close" transform="translate(-1870 -900)">
    <rect id="矩形_60" data-name="矩形 60" class="cls-1" width="17.999" height="17.999" transform="translate(1870 900)"/>
    <path id="路径_95" data-name="路径 95" class="cls-2" d="M50.441,60.286l-7.033-7.118a1.142,1.142,0,0,0-1.629,0,1.176,1.176,0,0,0,0,1.649l7.033,7.119L42,68.834a1.176,1.176,0,0,0,0,1.649,1.142,1.142,0,0,0,1.629,0l6.815-6.9,6.815,6.9a1.142,1.142,0,0,0,1.629,0,1.176,1.176,0,0,0,0-1.649l-6.815-6.9L59.1,54.817a1.176,1.176,0,0,0,0-1.649,1.142,1.142,0,0,0-1.629,0Z" transform="translate(1828.558 847.174)"/>
  </g>
</svg>
