<svg xmlns="http://www.w3.org/2000/svg" width="15" height="20" viewBox="0 0 15 20">
  <defs>
    <style>
      .cls-1 {
        fill: #656363;
      }
    </style>
  </defs>
  <g id="dizhi_icon_" data-name="dizhi_icon " transform="translate(-863.5 -388)">
    <path id="路径_133" data-name="路径 133" class="cls-1" d="M183.5,68.375a3.125,3.125,0,1,0,3.125,3.125A3.126,3.126,0,0,0,183.5,68.375Zm0,4.375a1.25,1.25,0,1,1,1.25-1.25A1.251,1.251,0,0,1,183.5,72.75Zm0-8.75a7.5,7.5,0,0,0-7.5,7.5c0,4.143,7.5,12.5,7.5,12.5s7.5-8.357,7.5-12.5A7.5,7.5,0,0,0,183.5,64Zm-5.625,7.5a5.625,5.625,0,1,1,11.25,0c0,3.107-5.625,10-5.625,10S177.875,74.607,177.875,71.5Z" transform="translate(687.5 324)"/>
  </g>
</svg>
