<svg xmlns="http://www.w3.org/2000/svg" viewBox="0 0 18.004 18.004">
  <defs>
    <style>
      .cls-1 {
        fill: rgba(255,138,138,0);
      }

      .cls-2 {
        fill: #1890FF;
      }
    </style>
  </defs>
  <g id="group_person" transform="translate(0)">
    <rect id="矩形_87" data-name="矩形 87" class="cls-1" width="18.004" height="18.004"/>
    <path id="路径_113" data-name="路径 113" class="cls-2" d="M13.555,18H1.273a1.413,1.413,0,0,1-.959-.42,1.3,1.3,0,0,1-.3-1.02,7.44,7.44,0,0,1,14.8,0,1.3,1.3,0,0,1-.3,1.02A1.413,1.413,0,0,1,13.555,18ZM7.444,11.162a6.287,6.287,0,0,0-6.231,5.581v.06h12.4v-.06A6.186,6.186,0,0,0,7.444,11.162Zm0-.18a4.8,4.8,0,1,1,4.793-4.8,4.811,4.811,0,0,1-4.793,4.8Zm0-8.462a3.6,3.6,0,1,0,3.595,3.6,3.608,3.608,0,0,0-3.595-3.6ZM13.555,18H1.273a1.413,1.413,0,0,1-.959-.42,1.3,1.3,0,0,1-.3-1.02,7.44,7.44,0,0,1,14.8,0,1.3,1.3,0,0,1-.3,1.02A1.413,1.413,0,0,1,13.555,18ZM7.444,11.162a6.287,6.287,0,0,0-6.231,5.581v.06h12.4v-.06A6.186,6.186,0,0,0,7.444,11.162Zm0-.18a4.8,4.8,0,1,1,4.793-4.8,4.811,4.811,0,0,1-4.793,4.8Zm0-8.462a3.6,3.6,0,1,0,3.595,3.6,3.608,3.608,0,0,0-3.595-3.6ZM16.73,16.684H13.975v-1.2H16.79v-.06A6.243,6.243,0,0,0,10.56,9.842H10.5v-1.2h.06A7.47,7.47,0,0,1,17.989,15.3a1.3,1.3,0,0,1-.3,1.02,1.879,1.879,0,0,1-.959.36ZM10.679,9.662v-1.2a3.678,3.678,0,0,0,3.535-3.6,3.608,3.608,0,0,0-3.595-3.6A3.672,3.672,0,0,0,7.983,2.4l-.839-.84A4.469,4.469,0,0,1,10.56,0a4.811,4.811,0,0,1,4.793,4.8A4.8,4.8,0,0,1,10.679,9.662Z" transform="translate(0)"/>
  </g>
</svg>
