<svg xmlns="http://www.w3.org/2000/svg" viewBox="0 0 18 18">
  <defs>
    <style>
      .cls-1 {
        fill: rgba(255,119,119,0);
      }

      .cls-2 {
        fill: #189271;
      }
    </style>
  </defs>
  <g id="group_set_tuichu" transform="translate(-808 -196)">
    <rect id="矩形_89" data-name="矩形 89" class="cls-1" width="18" height="18" transform="translate(808 196)"/>
    <g id="组_88" data-name="组 88" transform="translate(580.7 26.715)">
      <path id="路径_115" data-name="路径 115" class="cls-2" d="M235.042,185.9h-3.386a3,3,0,0,1-2.963-2.963v-9.312a2.893,2.893,0,0,1,2.963-2.963h3.386a1.27,1.27,0,1,1,0,2.54h-3.386a.4.4,0,0,0-.423.423v9.312a.4.4,0,0,0,.423.423h3.386a1.27,1.27,0,1,1,0,2.54Z"/>
      <path id="路径_116" data-name="路径 116" class="cls-2" d="M595.557,310.614l-2.963-2.963a1.257,1.257,0,0,1,1.778-1.778l2.963,2.963a1.257,1.257,0,1,1-1.778,1.778Z" transform="translate(-353.658 -131.483)"/>
      <path id="路径_117" data-name="路径 117" class="cls-2" d="M597.334,427.119l-2.963,2.963a1.257,1.257,0,0,1-1.778-1.778l2.963-2.963a1.257,1.257,0,1,1,1.778,1.778Z" transform="translate(-353.658 -247.987)"/>
      <path id="路径_118" data-name="路径 118" class="cls-2" d="M383.682,426.667h5.558a1.275,1.275,0,1,1,0,2.54h-5.558a1.368,1.368,0,0,1-1.389-1.27A1.308,1.308,0,0,1,383.682,426.667Z" transform="translate(-149.323 -249.652)"/>
    </g>
  </g>
</svg>
