<svg xmlns="http://www.w3.org/2000/svg" viewBox="0 0 18 18">
  <defs>
    <style>
      .cls-1 {
        fill: rgba(255,119,119,0);
      }

      .cls-2 {
        fill: #1890FF;
      }
    </style>
  </defs>
  <g id="group_set_icon" transform="translate(-808 -196)">
    <rect id="矩形_89" data-name="矩形 89" class="cls-1" width="18" height="18" transform="translate(808 196)"/>
    <path id="路径_114" data-name="路径 114" class="cls-2" d="M17.134,7.438a1.22,1.22,0,0,0-.608-1.052L15.16,5.6a1.841,1.841,0,0,1-.68-.682l-.264-.464a1.784,1.784,0,0,1-.235-.866L13.959,1.83A1.219,1.219,0,0,0,13.36.8l-1-.586A1.216,1.216,0,0,0,11.1.234l-1.317.818a1.861,1.861,0,0,1-.986.282h-.42a1.851,1.851,0,0,1-.957-.262L6,.224a1.218,1.218,0,0,0-1.242,0L3.772.8a1.211,1.211,0,0,0-.6,1.068l.04,1.709a1.809,1.809,0,0,1-.233.922l-.237.418a1.832,1.832,0,0,1-.7.7L.624,6.4A1.209,1.209,0,0,0,0,7.464L0,8.672A1.214,1.214,0,0,0,.6,9.716l1.471.86a1.868,1.868,0,0,1,.668.674l.25.438a1.808,1.808,0,0,1,.235.926L3.2,14.243a1.2,1.2,0,0,0,.6,1.068l1,.588a1.219,1.219,0,0,0,1.217.01l1.444-.818a1.86,1.86,0,0,1,.92-.242h.476A1.851,1.851,0,0,1,9.8,15.1l1.34.786a1.222,1.222,0,0,0,1.234,0l1.007-.594a1.214,1.214,0,0,0,.6-1.03L14,12.577a1.815,1.815,0,0,1,.233-.866l.277-.49a1.812,1.812,0,0,1,.639-.66L16.558,9.7a1.215,1.215,0,0,0,.58-1.033l0-1.224ZM8.568,11.617A3.5,3.5,0,0,1,5.141,8.058,3.5,3.5,0,0,1,8.568,4.5,3.5,3.5,0,0,1,12,8.058a3.505,3.505,0,0,1-3.427,3.559Z" transform="translate(808.44 196.951)"/>
  </g>
</svg>
