<svg xmlns="http://www.w3.org/2000/svg" width="18.926" height="12.64" viewBox="0 0 18.926 12.64">
  <defs>
    <style>
      .cls-1 {
        fill: #656363;
        stroke: #656363;
        stroke-width: 0.3px;
      }
    </style>
  </defs>
  <g id="guimo_icon_" data-name="guimo_icon " transform="translate(-861.537 -391.35)">
    <path id="路径_134" data-name="路径 134" class="cls-1" d="M13.387,135.334l-.466.815a4.594,4.594,0,0,1,2.328,4.074h.931A5.714,5.714,0,0,0,13.387,135.334ZM9.2,128a3.777,3.777,0,0,0-3.725,3.842,3.87,3.87,0,0,0,1.746,3.26,5.572,5.572,0,0,0-3.725,5.238h.931a4.9,4.9,0,0,1,4.889-4.773A3.786,3.786,0,1,0,9.2,128Zm0,6.635a2.794,2.794,0,1,1,2.794-2.794A2.688,2.688,0,0,1,9.2,134.635Zm6.868-2.328a3.006,3.006,0,0,0-3.027-3.027c.116.233.349.582.466.815a2.243,2.243,0,0,1,1.746,2.212,2.335,2.335,0,0,1-2.328,2.328,5.064,5.064,0,0,1-.7.815c.233,0,.466-.116.7-.116A3.107,3.107,0,0,0,16.065,132.307Zm.349,2.794-.349.7a3.858,3.858,0,0,1,1.863,3.26h.7A4.541,4.541,0,0,0,16.414,135.1ZM0,139.059H.815a3.583,3.583,0,0,1,1.863-3.26l-.466-.7A4.541,4.541,0,0,0,0,139.059Zm6.286-3.725a5.063,5.063,0,0,1-.7-.815,2.335,2.335,0,0,1-2.328-2.328,2.373,2.373,0,0,1,1.746-2.212,1.876,1.876,0,0,0,.466-.815,3.027,3.027,0,1,0,0,6.053A2.272,2.272,0,0,0,6.286,135.334Z" transform="translate(861.687 263.5)"/>
  </g>
</svg>
