<svg xmlns="http://www.w3.org/2000/svg" width="18.534" height="18.534" viewBox="0 0 18.534 18.534">
  <defs>
    <style>
      .cls-1 {
        fill: #656363;
      }
    </style>
  </defs>
  <g id="hangye_icon" transform="translate(-862 -392)">
    <path id="路径_131" data-name="路径 131" class="cls-1" d="M122.36,140.134a.76.76,0,1,1,0-1.519h17.015a.76.76,0,0,1,0,1.519Zm1.215-18.534h14.584a1.976,1.976,0,0,1,1.975,1.975v12.153a1.976,1.976,0,0,1-1.975,1.975H123.575a1.975,1.975,0,0,1-1.975-1.975V123.575A1.976,1.976,0,0,1,123.575,121.6Zm0,1.519a.456.456,0,0,0-.456.456v12.153a.456.456,0,0,0,.456.456h14.584a.456.456,0,0,0,.456-.456V123.575a.456.456,0,0,0-.456-.456Zm1.823,10.634a.76.76,0,1,1-1.215-.912l3.038-4.049a1.975,1.975,0,0,1,2.462-.582l3.047,1.524a.456.456,0,0,0,.569-.134l3.037-4.052a.76.76,0,1,1,1.215.911l-3.038,4.051a1.975,1.975,0,0,1-2.462.582L129,129.569a.456.456,0,0,0-.569.134l-3.037,4.052Z" transform="translate(740.4 270.401)"/>
  </g>
</svg>
