<svg xmlns="http://www.w3.org/2000/svg" width="19.808" height="19.808" viewBox="0 0 19.808 19.808">
  <defs>
    <style>
      .cls-1 {
        fill: rgba(158,27,27,0);
      }

      .cls-2 {
        fill: #686868;
      }
    </style>
  </defs>
  <g id="name_icon" transform="translate(-64.5 -67.6)">
    <rect id="矩形_105" data-name="矩形 105" class="cls-1" width="19.808" height="19.808" transform="translate(64.5 67.599)"/>
    <path id="路径_129" data-name="路径 129" class="cls-2" d="M81.395,71.064H76.371v-.727A1.938,1.938,0,0,0,74.434,68.4h-6.7A1.938,1.938,0,0,0,65.8,70.337V85.83H83.33V73A1.936,1.936,0,0,0,81.395,71.064ZM75.081,84.539h-7.99v-14.2a.647.647,0,0,1,.646-.646h6.7a.647.647,0,0,1,.646.646Zm6.961,0h-5.67V72.355h5.023a.647.647,0,0,1,.646.646Z" transform="translate(-0.012 -0.008)"/>
    <path id="路径_130" data-name="路径 130" class="cls-2" d="M220,286.625h-1.257V282.46a.315.315,0,0,0-.314-.314h-1.257a.315.315,0,0,0-.314.314v4.165H215.6v-4.479a1.259,1.259,0,0,1,1.257-1.257h1.886A1.258,1.258,0,0,1,220,282.146Zm-.864-11.768h-2.672a.629.629,0,1,1,0-1.257h2.672a.629.629,0,1,1,0,1.257Zm0,2.97h-2.672a.629.629,0,1,1,0-1.257h2.672a.629.629,0,0,1,0,1.257Zm7.88-.147H225.13a.629.629,0,0,1,0-1.257h1.886a.629.629,0,1,1,0,1.257Zm.069,2.489H225.2a.629.629,0,0,1,0-1.257h1.886a.629.629,0,1,1,0,1.257Zm0,2.387H225.2a.629.629,0,0,1,0-1.257h1.886a.629.629,0,1,1,0,1.257Z" transform="translate(-146.87 -201.176)"/>
  </g>
</svg>
