<svg xmlns="http://www.w3.org/2000/svg" viewBox="0 0 35.988 36">
  <defs>
    <style>
      .cls-1 {
        fill: #9f9f9f;
      }

      .cls-2 {
        fill: #fff;
      }
    </style>
  </defs>
  <g id="text" transform="translate(-6360.99 -812)">
    <rect id="矩形_2304" data-name="矩形 2304" class="cls-1" width="35.988" height="36" rx="8" transform="translate(6360.99 812)"/>
    <g id="组_87" data-name="组 87" transform="translate(6369.358 819.981)">
      <path id="路径_107" data-name="路径 107" class="cls-2" d="M290.235,793.373a.723.723,0,0,1-.45-.157l-3.591-2.872a.72.72,0,0,1,.9-1.122l3.142,2.513,3.143-2.513a.72.72,0,0,1,.9,1.122l-3.591,2.872A.717.717,0,0,1,290.235,793.373Z" transform="translate(-280.743 -773.697)"/>
      <path id="路径_108" data-name="路径 108" class="cls-2" d="M16.627,16.823H13.082a.718.718,0,0,1,0-1.436h3.545a.616.616,0,0,0,.608-.623V3.084a.616.616,0,0,0-.608-.623H2.043a.616.616,0,0,0-.608.623V14.763a.616.616,0,0,0,.608.623H5.9a.718.718,0,0,1,0,1.436H2.043A2.054,2.054,0,0,1,0,14.763V3.084a2.054,2.054,0,0,1,2.044-2.06H16.627a2.054,2.054,0,0,1,2.044,2.06V14.763a2.055,2.055,0,0,1-2.044,2.06Z" transform="translate(0)"/>
      <path id="路径_109" data-name="路径 109" class="cls-2" d="M178.332,237.332h-11.49a.718.718,0,1,0,0,1.436h11.49a.718.718,0,1,0,0-1.436Zm0,2.872h-11.49a.718.718,0,1,0,0,1.436h11.49a.718.718,0,1,0,0-1.436Zm0,2.872h-11.49a.718.718,0,1,0,0,1.436h11.49a.718.718,0,1,0,0-1.436Z" transform="translate(-163.096 -231.999)"/>
    </g>
  </g>
</svg>
