<svg xmlns="http://www.w3.org/2000/svg" width="29.96" height="29.003" viewBox="0 0 29.96 29.003">
  <defs>
    <style>
      .cls-1 {
        fill: #a5b5c1;
      }

      .cls-2 {
        fill: #99a8b4;
      }

      .cls-3 {
        fill: none;
      }
    </style>
  </defs>
  <g id="person" transform="translate(-116.014 -341)">
    <path id="icon-persons" class="cls-1" d="M4.518,24.17c-4.7,0-5.947-5.443-2.721-9.251l3.025-2.35h6.768l3.039,2.35c3.226,3.808,1.984,9.251-2.721,9.251ZM2.976,5.182a5.23,5.23,0,1,1,5.23,5.181A5.207,5.207,0,0,1,2.976,5.182Z" transform="translate(129.547 343.9)"/>
    <g id="icon-persons-2" data-name="icon-persons" transform="translate(116.014 341)">
      <path id="icon-persons-3" data-name="icon-persons" class="cls-2" d="M5.315,29c-5.535,0-7-6.532-3.2-11.1l3.672-3.4h7.734l3.69,3.4c3.8,4.57,2.334,11.1-3.2,11.1Zm-1.79-22.8a6.13,6.13,0,1,1,12.258,0,6.13,6.13,0,1,1-12.258,0Z" transform="translate(0)"/>
      <path id="Stroke_Effect" data-name="Stroke Effect" class="cls-3" d="M5.315,29c-5.535,0-7-6.532-3.2-11.1l3.672-3.4h7.734l3.69,3.4c3.8,4.57,2.334,11.1-3.2,11.1Zm-1.79-22.8a6.13,6.13,0,1,1,12.258,0,6.13,6.13,0,1,1-12.258,0Z" transform="translate(0)"/>
    </g>
  </g>
</svg>
