<svg id="daiban_icon" xmlns="http://www.w3.org/2000/svg" viewBox="0 0 46 46">
  <defs>
    <style>
      .cls-1 {
        fill: #47a6ff;
      }

      .cls-2 {
        fill: #fff;
      }
    </style>
  </defs>
  <circle id="Ellipse_2" data-name="Ellipse 2" class="cls-1" cx="23" cy="23" r="23"/>
  <path id="形状_2081" data-name="形状 2081" class="cls-2" d="M1152.05,3153.663c-.406,0-.735.537-.735.94s.329.941.735.941h2.559c.406,0,.736-.538.736-.941s-.329-.94-.736-.94Zm11.56-4.153c0-.4-.329-.94-.736-.94H1152.05c-.406,0-.735.537-.735.94s.329.941.735.941h10.824c.406,0,.736-.537.736-.941Zm-11.56-4.135h10.837c.406,0,.736-.537.736-.94s-.33-.941-.736-.941H1152.05c-.406,0-.735.538-.735.941s.329.94.735.94Zm14.791,4.592v-9.011a1.986,1.986,0,0,0-1.973-1.958H1150.3a2.59,2.59,0,0,0-2.3,2.28v16.443a2.59,2.59,0,0,0,2.3,2.279h11.3a.881.881,0,0,0,.974-.889c0-.592-.424-1.144-.825-1.152h0l-10.853-.013c-.576,0-.831-.259-.831-.834l0-15.361c0-.507.2-.709.708-.711h.01l13.286,0c.513,0,.719.2.72.717v8.214c0,.4.552.752,1.17.752a.788.788,0,0,0,.888-.752Zm-9.392,4.783a1.444,1.444,0,1,0,1.444-1.47,1.457,1.457,0,0,0-1.444,1.47Zm5.775-1.47a1.47,1.47,0,1,0,1.444,1.47,1.457,1.457,0,0,0-1.444-1.47Zm4.331,0a1.47,1.47,0,1,0,1.444,1.47,1.457,1.457,0,0,0-1.444-1.47Zm0,0" transform="translate(-1135.999 -3126.999)"/>
</svg>
