<svg id="group_icon" xmlns="http://www.w3.org/2000/svg" viewBox="0 0 46 46">
  <defs>
    <style>
      .cls-1 {
        fill: #ffb31c;
      }

      .cls-2 {
        fill: #fff;
      }
    </style>
  </defs>
  <circle id="Ellipse_2" data-name="Ellipse 2" class="cls-1" cx="23" cy="23" r="23"/>
  <path id="路径_111" data-name="路径 111" class="cls-2" d="M78.32,9.366a5.246,5.246,0,1,0-6.494,0,8.746,8.746,0,0,0-5.5,8.12v2.623a.874.874,0,0,0,.874.874H82.942a.874.874,0,0,0,.874-.874V17.486A8.746,8.746,0,0,0,78.32,9.366Zm-6.744-4.12a3.5,3.5,0,1,1,3.5,3.5A3.5,3.5,0,0,1,71.576,5.246ZM82.068,18.361a.874.874,0,0,1-.874.874H68.953a.874.874,0,0,1-.874-.874v-.874a6.995,6.995,0,1,1,13.989,0ZM69.827,9.618a.874.874,0,0,0-.874-.874h0a2.623,2.623,0,0,1,0-5.246h0a.874.874,0,0,0,0-1.749h0a4.371,4.371,0,0,0-2.842,7.693,6.119,6.119,0,0,0-3.279,5.421.874.874,0,0,0,1.749,0,4.372,4.372,0,0,1,4.372-4.372A.874.874,0,0,0,69.827,9.618Z" transform="translate(-49.833 13)"/>
</svg>
