<svg xmlns="http://www.w3.org/2000/svg" width="24" height="24" viewBox="0 0 24 24">
  <defs>
    <style>
      .cls-1 {
        fill: #5787f2;
      }

      .cls-2 {
        fill: #fff;
      }
    </style>
  </defs>
  <g id="my_phone" transform="translate(-6360.99 -712)">
    <rect id="矩形_2304" data-name="矩形 2304" class="cls-1" width="24" height="24" rx="4" transform="translate(6360.99 712)"/>
    <g id="组_21" data-name="组 21" transform="translate(6366.989 716.797)">
      <path id="Color_Overlay" data-name="Color Overlay" class="cls-2" d="M1.678,15.206a1.607,1.607,0,0,1-1.187-.54A1.942,1.942,0,0,1,0,13.362V1.843A1.94,1.94,0,0,1,.491.54,1.6,1.6,0,0,1,1.678,0H9.522a1.6,1.6,0,0,1,1.187.54,1.936,1.936,0,0,1,.492,1.3V13.362a1.938,1.938,0,0,1-.492,1.3,1.606,1.606,0,0,1-1.187.54ZM1.085,1.192a.969.969,0,0,0-.246.651V13.362a.971.971,0,0,0,.246.652.8.8,0,0,0,.593.269H9.522a.8.8,0,0,0,.594-.269.969.969,0,0,0,.246-.652V1.843a.968.968,0,0,0-.246-.651.8.8,0,0,0-.594-.27H1.678A.8.8,0,0,0,1.085,1.192ZM4.367,12.135A1.278,1.278,0,0,1,5.6,10.817a1.321,1.321,0,0,1,0,2.637A1.278,1.278,0,0,1,4.367,12.135Zm.822,0A.412.412,0,1,0,5.6,11.7.426.426,0,0,0,5.189,12.135ZM2.244,9.676v-.92H8.958v.92Z" transform="translate(0 0)"/>
    </g>
  </g>
</svg>
