<svg xmlns="http://www.w3.org/2000/svg" width="22" height="22" viewBox="0 0 22 22">
  <defs>
    <style>
      .cls-1 {
        fill: rgba(57,119,234,0);
      }

      .cls-2 {
        fill: #3977ea;
      }
    </style>
  </defs>
  <g id="weibo_selected" transform="translate(-1163 -720)">
    <rect id="矩形_52" data-name="矩形 52" class="cls-1" width="22" height="22" rx="2" transform="translate(1163 720)"/>
    <path id="路径_177" data-name="路径 177" class="cls-2" d="M14.746,8.612c-.74-.143-.379-.535-.379-.535a1.72,1.72,0,0,0-.145-2.04c-1.074-1.063-3.689.134-3.689.134-1,.305-.733-.14-.592-.9,0-.894-.309-2.406-2.968-1.515S2.036,7.807,2.036,7.807A5.535,5.535,0,0,0,.659,11.514c.4,3.571,4.232,4.551,7.217,4.783,3.139.242,7.378-1.069,8.661-3.768a2.591,2.591,0,0,0-1.791-3.917Zm-6.638,6.68c-3.116.143-5.638-1.4-5.638-3.456S4.991,8.128,8.108,7.985s5.644,1.13,5.644,3.182-2.525,3.984-5.644,4.124ZM7.487,9.338A2.91,2.91,0,0,0,4.715,12.6a1.6,1.6,0,0,0,.839,1.387,3.659,3.659,0,0,0,4.676-.831c.955-1.216.4-4.182-2.743-3.822ZM6.7,13.414a.856.856,0,0,1-1.058-.751,1.114,1.114,0,0,1,1-1.047c.672-.064,1.11.318,1.11.805a1.123,1.123,0,0,1-1.055.993Zm1.849-1.556A.363.363,0,0,1,8,11.807a.452.452,0,0,1,.132-.589.382.382,0,0,1,.579.051.482.482,0,0,1-.164.589Zm7.728-4.5a.51.51,0,0,0,.5-.426.31.31,0,0,0,.006-.054,2.3,2.3,0,0,0-2.82-2.816.509.509,0,1,0,0,1.018c2.3-.5,1.795,1.772,1.795,1.772a.506.506,0,0,0,.514.506ZM15.9,1.417a6.452,6.452,0,0,0-2.567.025c-.026,0-.048.026-.071.029a.062.062,0,0,0-.019.013.74.74,0,0,0,.2,1.454,3.673,3.673,0,0,0,.675-.159,3.958,3.958,0,0,1,3.7,1.811,3.26,3.26,0,0,1,.228,2.454,2.166,2.166,0,0,0-.148.713.683.683,0,0,0,.746.665c.344,0,.634-.048.717-.624h0C20.6,3.765,17.881,1.872,15.9,1.417Z" transform="translate(1163.35 721.705)"/>
  </g>
</svg>
