<svg xmlns="http://www.w3.org/2000/svg" width="35.988" height="36" viewBox="0 0 35.988 36">
  <defs>
    <style>
      .cls-1 {
        fill: #3bb75e;
      }

      .cls-2 {
        fill: #fff;
      }
    </style>
  </defs>
  <g id="mail" transform="translate(-6360.99 -812)">
    <rect id="矩形_2304" data-name="矩形 2304" class="cls-1" width="35.988" height="36" rx="8" transform="translate(6360.99 812)"/>
    <g id="组_22" data-name="组 22" transform="translate(6367.587 821.599)">
      <path id="Color_Overlay" data-name="Color Overlay" class="cls-2" d="M2.968,16.8a3.075,3.075,0,0,1-2.1-.8A2.644,2.644,0,0,1,0,14.047V2.753A2.643,2.643,0,0,1,.866.8a3.075,3.075,0,0,1,2.1-.8H20.426a3.078,3.078,0,0,1,2.1.8,2.645,2.645,0,0,1,.866,1.949V14.047A2.645,2.645,0,0,1,22.528,16a3.078,3.078,0,0,1-2.1.8ZM1.473,2.693V13.987a1.429,1.429,0,0,0,1.494,1.386H20.426a1.431,1.431,0,0,0,1.494-1.386V2.693a1.43,1.43,0,0,0-1.494-1.385H2.968A1.429,1.429,0,0,0,1.473,2.693ZM19.68,14.546l-.01,0-.01-.01-5.04-4.024a.773.773,0,0,1-.253-.471.573.573,0,0,1,.189-.489.882.882,0,0,1,.577-.236.65.65,0,0,1,.452.176l5.04,4.023a.639.639,0,0,1,.065.961.87.87,0,0,1-.518.2A1.337,1.337,0,0,1,19.68,14.546ZM2.452,14.473a.6.6,0,0,1-.187-.494.621.621,0,0,1,.26-.471L7.553,9.489A.644.644,0,0,1,8,9.313a.879.879,0,0,1,.583.236.6.6,0,0,1,.187.494.622.622,0,0,1-.258.471L3.474,14.542l-.01,0a1.041,1.041,0,0,1-.428.129A.875.875,0,0,1,2.452,14.473Zm7.584-4.725L2.514,3.238a.691.691,0,0,1-.074-.951l.01-.01A.8.8,0,0,1,3,2.065a.848.848,0,0,1,.473.143l0,0L11,8.717a.743.743,0,0,0,.512.2.921.921,0,0,0,.563-.2l7.517-6.5a.71.71,0,0,1,1.036.065.624.624,0,0,1,.209.486.675.675,0,0,1-.284.475l-7.517,6.5a1.954,1.954,0,0,1-1.474.559A2.436,2.436,0,0,1,10.036,9.747Z" transform="translate(0 0)"/>
    </g>
  </g>
</svg>
