<svg id="phone" xmlns="http://www.w3.org/2000/svg" width="36" height="36" viewBox="0 0 36 36">
  <defs>
    <style>
      .cls-1 {
        fill: #5787f2;
      }

      .cls-2 {
        fill: #fff;
      }
    </style>
  </defs>
  <rect id="矩形_2304" data-name="矩形 2304" class="cls-1" width="36" height="36" rx="8" transform="translate(0)"/>
  <g id="组_21" data-name="组 21" transform="translate(8.256 6.022)">
    <path id="Color_Overlay" data-name="Color Overlay" class="cls-2" d="M2.754,24.959a2.636,2.636,0,0,1-1.948-.886A3.185,3.185,0,0,1,0,21.934V3.025A3.183,3.183,0,0,1,.807.887,2.634,2.634,0,0,1,2.754,0H15.631a2.633,2.633,0,0,1,1.947.887,3.176,3.176,0,0,1,.808,2.139V21.934a3.179,3.179,0,0,1-.808,2.14,2.635,2.635,0,0,1-1.947.886Zm-.974-23a1.591,1.591,0,0,0-.4,1.069V21.934a1.594,1.594,0,0,0,.4,1.07,1.32,1.32,0,0,0,.974.442H15.631A1.32,1.32,0,0,0,16.6,23a1.594,1.594,0,0,0,.4-1.07V3.025a1.591,1.591,0,0,0-.4-1.069,1.318,1.318,0,0,0-.974-.443H2.754A1.317,1.317,0,0,0,1.781,1.956ZM7.169,19.919a2.1,2.1,0,0,1,2.023-2.164,2.169,2.169,0,0,1,0,4.328A2.1,2.1,0,0,1,7.169,19.919Zm1.349,0a.676.676,0,1,0,.674-.721A.7.7,0,0,0,8.518,19.919ZM3.683,15.883V14.372H14.7v1.511Z"/>
  </g>
</svg>
