<?xml version="1.0" standalone="no"?><!DOCTYPE svg PUBLIC "-//W3C//DTD SVG 1.1//EN" "http://www.w3.org/Graphics/SVG/1.1/DTD/svg11.dtd"><svg t="1547024682909" class="icon" style="" viewBox="0 0 1024 1024" version="1.1" xmlns="http://www.w3.org/2000/svg" p-id="2066" xmlns:xlink="http://www.w3.org/1999/xlink" width="32" height="32"><defs><style type="text/css"></style></defs><path d="M148.00896 365.010944l0 0.41984c-1.527808-0.256-3.084288-0.421888-4.685824-0.421888L53.37088 365.008896c-15.525888 0-28.110848 12.58496-28.110848 28.110848l0 264.2432c0 15.521792 12.587008 28.110848 28.110848 28.110848l89.952256 0c1.599488 0 3.158016-0.16384 4.685824-0.421888l0 0.41984 327.95648 227.69664L475.96544 131.692544 148.00896 365.010944z" p-id="2067" fill="#1296db"></path><path d="M654.938112 185.229312l0 33.755136c170.579968 4.95616 307.339264 144.78336 307.339264 316.563456 0 171.782144-136.759296 311.605248-307.339264 316.565504l0 33.75104c189.210624-4.9664 341.07392-159.905792 341.07392-350.318592S844.148736 190.19776 654.938112 185.229312z" p-id="2068" fill="#1296db"></path><path d="M624.664576 308.789248l0 21.848064c110.41792 3.209216 198.940672 93.71648 198.940672 204.910592 0 111.192064-88.522752 201.701376-198.940672 204.910592l0 21.85216c122.476544-3.213312 220.7744-103.50592 220.7744-226.762752C845.438976 412.295168 747.139072 312.004608 624.664576 308.789248z" p-id="2069" fill="#1296db"></path><path d="M576.223232 395.034624l0 13.53728c68.421632 1.990656 123.275264 58.073088 123.275264 126.976s-54.853632 124.987392-123.275264 126.976l0 13.539328c75.894784-1.994752 136.808448-64.141312 136.808448-140.515328S652.118016 397.02528 576.223232 395.034624z" p-id="2070" fill="#1296db"></path></svg>