<svg xmlns="http://www.w3.org/2000/svg" width="252.914" height="311.299" viewBox="0 0 252.914 311.299">
  <g id="icon_form" transform="translate(-193.84 -110.921)">
    <path id="路径_2" data-name="路径 2" d="M446.754,123.409V409.732a12.488,12.488,0,0,1-12.488,12.488H206.328a12.488,12.488,0,0,1-12.488-12.488V177.669h66.747V110.921H434.266A12.488,12.488,0,0,1,446.754,123.409Z" fill="#fcd462"/>
    <path id="路径_3" data-name="路径 3" d="M260.588,110.921v66.748H193.841Z" fill="#dc8744"/>
    <g id="组_2" data-name="组 2">
      <path id="路径_5" data-name="路径 5" d="M236.9,262.937a4.663,4.663,0,0,1-3.159-1.226L221.675,250.7a4.683,4.683,0,1,1,6.317-6.915l8.61,7.854,28.482-31.2A4.683,4.683,0,0,1,272,226.754l-31.64,34.659A4.663,4.663,0,0,1,236.9,262.937Z" fill="#fff"/>
      <path id="路径_6" data-name="路径 6" d="M236.9,317.645a4.675,4.675,0,0,1-3.159-1.226L221.675,305.4a4.683,4.683,0,0,1,6.317-6.915l8.61,7.86,28.482-31.2A4.683,4.683,0,1,1,272,281.462l-31.64,34.659a4.68,4.68,0,0,1-3.244,1.518C237.042,317.645,236.975,317.645,236.9,317.645Z" fill="#fff"/>
      <path id="路径_7" data-name="路径 7" d="M236.9,372.352a4.675,4.675,0,0,1-3.159-1.226l-12.067-11.018a4.683,4.683,0,0,1,6.317-6.915l8.61,7.86,28.482-31.207A4.683,4.683,0,1,1,272,336.163l-31.64,34.665a4.68,4.68,0,0,1-3.244,1.518C237.042,372.352,236.975,372.352,236.9,372.352Z" fill="#fff"/>
      <rect id="矩形_4" data-name="矩形 4" width="120.907" height="12.488" transform="translate(299.523 237.643)" fill="#fff"/>
      <rect id="矩形_5" data-name="矩形 5" width="120.907" height="12.488" transform="translate(299.523 292.346)" fill="#fff"/>
      <rect id="矩形_6" data-name="矩形 6" width="120.907" height="12.488" transform="translate(299.523 347.042)" fill="#fff"/>
    </g>
  </g>
</svg>
