<svg xmlns="http://www.w3.org/2000/svg" width="22" height="22" viewBox="0 0 22 22">
  <defs>
    <style>
      .cls-1 {
        fill: rgba(57,119,234,0);
      }

      .cls-2 {
        fill: rgba(0,0,0,0.6);
      }
    </style>
  </defs>
  <g id="erweima" transform="translate(-1163 -720)">
    <rect id="矩形_52" data-name="矩形 52" class="cls-1" width="22" height="22" rx="2" transform="translate(1163 720)"/>
    <path id="路径_179" data-name="路径 179" class="cls-2" d="M63,69.062h8.162V60.9H63Zm2.04-6.121h4.081v4.081H65.037Zm7.142-2.04v8.162h8.162V60.9ZM78.3,67.021H74.219V62.94H78.3ZM66.057,66H68.1v-2.04h-2.04ZM63,78.244h8.162V70.082H63Zm2.04-6.121h4.081V76.2H65.037ZM77.28,63.961h-2.04V66h2.04v-2.04Zm-5.1,14.283h2.04V76.2h-2.04Zm2.04-6.121V76.2h2.04V72.122ZM78.3,76.2H76.26v2.04h4.081V74.163H78.3Zm0-4.081h2.04v-2.04H78.3Zm-6.121-2.04v2.04h2.04v-2.04Zm-6.121,5.1H68.1v-2.04h-2.04Z" transform="translate(1102.377 661.473)"/>
  </g>
</svg>
