<svg xmlns="http://www.w3.org/2000/svg" width="22" height="22" viewBox="0 0 22 22">
  <defs>
    <style>
      .cls-1 {
        fill: rgba(57,119,234,0);
      }

      .cls-2 {
        fill: #3977ea;
      }
    </style>
  </defs>
  <g id="qq_selected" transform="translate(-1163 -720)">
    <rect id="矩形_53" data-name="矩形 53" class="cls-1" width="22" height="22" rx="2" transform="translate(1163 720)"/>
    <path id="路径_174" data-name="路径 174" class="cls-2" d="M87.808,85.557c-.633,1.491-.736,2.914-.228,3.18.351.183.9-.234,1.415-1a4.2,4.2,0,0,0,1.429,2.195c-.756.279-1.249.734-1.249,1.251,0,.849,1.336,1.536,2.984,1.536,1.487,0,2.718-.558,2.945-1.291h.355c.228.733,1.461,1.291,2.946,1.291,1.648,0,2.984-.687,2.984-1.536,0-.516-.493-.972-1.249-1.251a4.207,4.207,0,0,0,1.429-2.195c.515.765,1.063,1.182,1.414,1,.509-.266.409-1.69-.227-3.18a4.22,4.22,0,0,0-1.69-2.226,2.317,2.317,0,0,0-.33-1.438.569.569,0,0,0,0-.08,1.28,1.28,0,0,0-.134-.573c-.13-3.047-2.114-5.466-5.324-5.466s-5.2,2.419-5.325,5.466a1.274,1.274,0,0,0-.135.573c0,.026,0,.054,0,.08a2.284,2.284,0,0,0-.339,1.213c0,.075,0,.15.009.225a4.237,4.237,0,0,0-1.687,2.226Z" transform="translate(1078.382 646.901)"/>
  </g>
</svg>
