<svg xmlns="http://www.w3.org/2000/svg" width="22" height="22" viewBox="0 0 22 22">
  <defs>
    <style>
      .cls-1 {
        fill: rgba(57,119,234,0);
      }

      .cls-2 {
        fill: #3977ea;
      }
    </style>
  </defs>
  <g id="wechat_selected" transform="translate(-1163 -720)">
    <rect id="矩形_52" data-name="矩形 52" class="cls-1" width="22" height="22" rx="2" transform="translate(1163 720)"/>
    <g id="wechat" transform="translate(1163.998 628.399)">
      <path id="路径_175" data-name="路径 175" class="cls-2" d="M432.329,383.576c0-2.741-2.741-4.974-5.825-4.974-3.267,0-5.833,2.232-5.833,4.974s2.566,4.973,5.833,4.973a8.853,8.853,0,0,0,2.058-.341l1.883,1.032-.515-1.716A5.208,5.208,0,0,0,432.329,383.576Zm-7.717-.858a.683.683,0,0,1,0-1.366.7.7,0,1,1,0,1.366Zm3.775,0a.683.683,0,0,1,0-1.366.7.7,0,1,1,0,1.366Z" transform="translate(-412.544 -278.334)"/>
      <path id="路径_176" data-name="路径 176" class="cls-2" d="M13.395,99.662a6.591,6.591,0,0,1,.674.039c-.6-2.824-3.621-4.917-7.065-4.917-3.847,0-7,2.621-7,5.956a5.748,5.748,0,0,0,2.8,4.731l-.7,2.109,2.451-1.232A12.228,12.228,0,0,0,7,106.7a6.4,6.4,0,0,0,.652-.03,5.115,5.115,0,0,1-.217-1.466A5.736,5.736,0,0,1,13.395,99.662Zm-3.77-1.9a.876.876,0,0,1,0,1.753.891.891,0,1,1,0-1.753Zm-4.9,1.752a.891.891,0,1,1,0-1.752.876.876,0,1,1,0,1.752Z"/>
    </g>
  </g>
</svg>
