<svg id="list_icon" xmlns="http://www.w3.org/2000/svg" viewBox="0 0 24 24">
  <defs>
    <style>
      .cls-1 {
        fill: rgba(255,113,113,0);
      }

      .cls-2 {
        fill: #1890ff;
      }
    </style>
  </defs>
  <rect id="矩形_78" data-name="矩形 78" class="cls-1" width="24" height="24"/>
  <g id="组_92" data-name="组 92" transform="translate(-8.936 -8.936)">
    <path id="路径_123" data-name="路径 123" class="cls-2" d="M79.412,70.4a9.012,9.012,0,1,0,9.012,9.012A9.03,9.03,0,0,0,79.412,70.4ZM77.78,82.808,74.71,79.739l.588-.588,2.482,2.482,5.486-5.486.588.588Z" transform="translate(-58.144 -58.144)"/>
    <path id="路径_124" data-name="路径 124" class="cls-2" d="M21.268,9.6A11.668,11.668,0,1,0,32.936,21.268,11.64,11.64,0,0,0,21.268,9.6Zm0,22.667a11,11,0,1,1,11-11A10.974,10.974,0,0,1,21.268,32.267Z"/>
  </g>
</svg>
