<svg id="icon" xmlns="http://www.w3.org/2000/svg" width="20" height="20" viewBox="0 0 20 20">
  <defs>
    <style>
      .cls-1 {
        fill: rgba(255,255,255,0.02);
      }

      .cls-2 {
        fill: #303841;
        opacity: 0.502;
      }
    </style>
  </defs>
  <rect id="矩形_96" data-name="矩形 96" class="cls-1" width="20" height="20"/>
  <path id="icon-search" class="cls-2" d="M16.873,15.324l-4.1-2.907a7.384,7.384,0,0,1-4.137,2.209,7.543,7.543,0,0,1-1.255.106A7.375,7.375,0,0,1,.106,8.607a7.3,7.3,0,0,1,1.263-5.5,7.363,7.363,0,0,1,4.8-3A7.543,7.543,0,0,1,7.418,0a7.375,7.375,0,0,1,7.273,6.125,7.306,7.306,0,0,1-.762,4.682l4.092,2.9a.661.661,0,0,1,.157.922l-.382.539a.662.662,0,0,1-.923.157ZM6.562,2.448a4.988,4.988,0,0,0,.824,9.909,5.083,5.083,0,0,0,.85-.072,4.988,4.988,0,0,0-.824-9.909A5.094,5.094,0,0,0,6.562,2.448Z" transform="translate(1 2)"/>
</svg>
