<svg id="contact_icon" xmlns="http://www.w3.org/2000/svg" viewBox="0 0 46 46">
  <defs>
    <style>
      .cls-1 {
        fill: #4858ef;
      }

      .cls-2 {
        fill: #fff;
      }
    </style>
  </defs>
  <circle id="Ellipse_2" data-name="Ellipse 2" class="cls-1" cx="23" cy="23" r="23"/>
  <path id="路径_110" data-name="路径 110" class="cls-2" d="M142.732,64h-2.462v9.544h-1.363V64h-9.279A1.625,1.625,0,0,0,128,65.627V68.09h2.192a.538.538,0,0,1,.534.554V68.9a.548.548,0,0,1-.534.555H128v3.409h2.192a.538.538,0,0,1,.534.554v.254a.546.546,0,0,1-.534.554H128v3.409h2.192a.538.538,0,0,1,.534.554v.254a.548.548,0,0,1-.534.556H128V81.46a1.625,1.625,0,0,0,1.628,1.627h13.1a1.625,1.625,0,0,0,1.628-1.627V65.627A1.625,1.625,0,0,0,142.732,64Z" transform="translate(-112.852 -50.493)"/>
</svg>
