<svg xmlns="http://www.w3.org/2000/svg" viewBox="0 0 20 20">
  <defs>
    <style>
      .cls-1 {
        fill: rgba(255,135,135,0);
      }

      .cls-2 {
        fill: rgba(0,0,0,0.3);
      }
    </style>
  </defs>
  <g id="contact_list" transform="translate(-538 -134)">
    <rect id="矩形_50" data-name="矩形 50" class="cls-1" width="20" height="20" transform="translate(538 134)"/>
    <path id="路径_97" data-name="路径 97" class="cls-2" d="M246.4,4.245l8.4,8.311-8.345,8.434a.951.951,0,0,0,0,1.344h0a.88.88,0,0,0,1.344-.092l8.9-8.9a1.486,1.486,0,0,0,.281-.379,1.142,1.142,0,0,0-.211-1.132L247.748,2.8a1.062,1.062,0,0,0-1.35.092.955.955,0,0,0,0,1.35Z" transform="translate(296.88 131.397)"/>
  </g>
</svg>
