<svg id="dingyue_icon" xmlns="http://www.w3.org/2000/svg" viewBox="0 0 46 46">
  <defs>
    <style>
      .cls-1 {
        fill: #60bd7f;
      }

      .cls-2 {
        fill: #fff;
      }
    </style>
  </defs>
  <circle id="Ellipse_2" data-name="Ellipse 2" class="cls-1" cx="23" cy="23" r="23"/>
  <path id="形状_2082" data-name="形状 2082" class="cls-2" d="M1167.924,3037.114l-2.242,0,0,1.947a1.115,1.115,0,0,1-2.212,0l0-1.95-2.225,0a.981.981,0,1,1,0-1.945l2.229,0,0-1.9a1.115,1.115,0,0,1,2.212,0l0,1.9,2.239,0a.981.981,0,1,1,0,1.946ZM1164.6,3031a1.046,1.046,0,0,1-1.105-.973l-.008-8.1-.064-.057.064.057v-.044a1.048,1.048,0,0,0-1.082-.922l-.013-.012h1.088l.007.377v-.38l-12.161.007h-.015l.012-.011h-1.089v.012h-.021l.008,14.83,5.967-5.256a1.217,1.217,0,0,1,1.564,0c.011.01.018.021.029.03l2.593,2.267a.892.892,0,0,1,0,1.375,1.215,1.215,0,0,1-1.564,0l-1.84-1.608-7.054,6.213a.994.994,0,0,1-.092.066,1.187,1.187,0,0,1-.708.231,1.047,1.047,0,0,1-1.106-.973l-.009-17.2a2.055,2.055,0,0,1,1.992-1.917l13.562-.008a2.1,2.1,0,0,1,2.144,1.791l.01,9.24a1.047,1.047,0,0,1-1.106.973Zm-13.292-10.051a1.043,1.043,0,0,0-1.088.971l.069-.061-.074.066.018-.976h1.075Zm.008,0h.009l-1.036.911,1.019-.91Zm11.07.005.018,0,1.019.91Zm0,0" transform="translate(-1135.999 -3006.999)"/>
</svg>
