<svg xmlns="http://www.w3.org/2000/svg" viewBox="0 0 20 20">
  <defs>
    <style>
      .cls-1, .cls-4 {
        fill: none;
      }

      .cls-1 {
        stroke: rgba(0,0,0,0.4);
        stroke-width: 1.1px;
      }

      .cls-2 {
        fill: rgba(0,0,0,0.4);
      }

      .cls-3 {
        stroke: none;
      }
    </style>
  </defs>
  <g id="下拉_icon" transform="translate(-1196 -178)">
    <g id="矩形_78" data-name="矩形 78" class="cls-1" transform="translate(1196 178)">
      <rect class="cls-3" width="20" height="20" rx="10"/>
      <rect class="cls-4" x="0.55" y="0.55" width="18.9" height="18.9" rx="9.45"/>
    </g>
    <path id="路径_101" data-name="路径 101" class="cls-2" d="M268.053,380.866a.636.636,0,0,1-.525.23.7.7,0,0,1-.5-.23l-4.454-4.35a.556.556,0,0,1,0-.8.6.6,0,0,1,.823,0l4.146,4.14,4.156-4.14a.6.6,0,0,1,.823,0,.556.556,0,0,1,0,.8Z" transform="translate(938.6 -189.552)"/>
  </g>
</svg>
