<svg xmlns="http://www.w3.org/2000/svg" viewBox="0 0 24 24">
  <defs>
    <style>
      .cls-1 {
        fill: rgba(255,148,148,0);
      }

      .cls-2 {
        fill: #1890ff;
      }
    </style>
  </defs>
  <g id="emoji" transform="translate(-620 -895)">
    <rect id="矩形_58" data-name="矩形 58" class="cls-1" width="24" height="24" transform="translate(620 895)"/>
    <path id="路径_92" data-name="路径 92" class="cls-2" d="M477.731,62.714A10.122,10.122,0,1,0,467.607,52.59,10.121,10.121,0,0,0,477.731,62.714Zm0-18.348a8.226,8.226,0,1,1-8.224,8.224A8.224,8.224,0,0,1,477.731,44.366Zm-5.063,5.441a1.264,1.264,0,1,1,1.264,1.264A1.263,1.263,0,0,1,472.667,49.807Zm7.592,0a1.264,1.264,0,1,1,1.264,1.264A1.263,1.263,0,0,1,480.259,49.807Zm.133,4.886h-5.308a.679.679,0,0,1-.677-.677v-.083a.679.679,0,0,1,.677-.677h5.308a.679.679,0,0,1,.677.677v.083A.677.677,0,0,1,480.393,54.693Z" transform="translate(154.271 854.409)"/>
  </g>
</svg>
