<svg xmlns="http://www.w3.org/2000/svg" viewBox="0 0 24 24">
  <defs>
    <style>
      .cls-1 {
        fill: rgba(255,148,148,0);
      }

      .cls-2 {
        fill: rgba(0,0,0,0.3);
      }
    </style>
  </defs>
  <g id="file" transform="translate(-620 -895)">
    <rect id="矩形_58" data-name="矩形 58" class="cls-1" width="24" height="24" transform="translate(620 895)"/>
    <path id="路径_94" data-name="路径 94" class="cls-2" d="M80.22,136.808H63.7v-2.89a.951.951,0,0,1,.931-.961h3.728c1.4,0,1.4,1.9,3.613,1.9h7.34a.951.951,0,0,1,.931.961v.991Zm0,8.585a.952.952,0,0,1-.931.961H64.631a.951.951,0,0,1-.931-.961v-6.853H80.22v6.853Zm-.137-12.268H71.972c-1.84,0-1.84-1.9-3.613-1.9H63.837a1.88,1.88,0,0,0-1.839,1.9v13.062a1.865,1.865,0,0,0,1.839,1.9H80.083a1.88,1.88,0,0,0,1.839-1.9V134.932a1.828,1.828,0,0,0-1.839-1.807h0Z" transform="translate(560.04 767.498)"/>
  </g>
</svg>
