<svg xmlns="http://www.w3.org/2000/svg" width="16" height="16" viewBox="0 0 16 16">
  <defs>
    <style>
      .cls-1 {
        fill: rgba(198,47,47,0);
      }

      .cls-2 {
        fill: #666;
      }
    </style>
  </defs>
  <g id="full" transform="translate(-1075 -34)">
    <rect id="矩形_97" data-name="矩形 97" class="cls-1" width="16" height="16" transform="translate(1075 34)"/>
    <path id="路径_121" data-name="路径 121" class="cls-2" d="M76.4,68.968l-2.167-.008,2.431-2.417a.692.692,0,0,0,0-.972.68.68,0,0,0-.965,0l-2.455,2.442.017-2.21a.492.492,0,0,0-.488-.512h-.349a.475.475,0,0,0-.51.449L71.9,69.575s.018.009.018.014l-.027.251a.449.449,0,0,0,.469.492l.249-.005a.081.081,0,0,0,.014,0l3.839.022a.529.529,0,0,0,.511-.513V69.48a.562.562,0,0,0-.573-.512Zm.547,5.845v-.352a.527.527,0,0,0-.508-.514l-3.819.021-.014,0-.248-.006a.446.446,0,0,0-.466.492l.027.251c0,.005-.018.009-.018.014l.014,3.8a.473.473,0,0,0,.508.449h.37a.491.491,0,0,0,.485-.513l-.016-2.165L75.7,78.721a.674.674,0,0,0,.96,0,.693.693,0,0,0,0-.972l-2.442-2.438,2.152-.008a.541.541,0,0,0,.57-.49ZM68.163,74.1a.467.467,0,0,0-.349-.139l-.25.006-.013,0-3.788-.022a.529.529,0,0,0-.51.514v.352a.545.545,0,0,0,.573.491l2.136.008L63.51,77.75a.69.69,0,0,0,0,.972.679.679,0,0,0,.964,0l2.455-2.441-.017,2.152a.492.492,0,0,0,.488.512h.35a.475.475,0,0,0,.51-.449l.014-3.777s-.018-.009-.018-.014l.027-.251a.473.473,0,0,0-.12-.352Zm.11-4.525-.014-3.834a.474.474,0,0,0-.507-.45h-.37a.491.491,0,0,0-.485.512L66.913,68l-2.444-2.426a.675.675,0,0,0-.961,0,.693.693,0,0,0,0,.972l2.42,2.417-2.132.008a.56.56,0,0,0-.57.512v.352a.528.528,0,0,0,.508.513l3.819-.022a.093.093,0,0,0,.014,0l.249.006a.465.465,0,0,0,.348-.14.47.47,0,0,0,.118-.353l-.027-.251c0-.005.019-.008.019-.013Zm0,0" transform="translate(1012.675 -30.422)"/>
  </g>
</svg>
