<svg id="group_person_add" xmlns="http://www.w3.org/2000/svg" viewBox="0 0 24 24">
  <defs>
    <style>
      .cls-1 {
        fill: rgba(255,113,113,0);
      }

      .cls-2 {
        fill: rgba(0,0,0,0.4);
      }
    </style>
  </defs>
  <rect id="矩形_78" data-name="矩形 78" class="cls-1" width="24" height="24"/>
  <g id="组_91" data-name="组 91" transform="translate(-64 -63.2)">
    <path id="路径_121" data-name="路径 121" class="cls-2" d="M299.207,292.811h-4.123v-4.123a.688.688,0,0,0-1.375,0v4.123h-4.121a.688.688,0,1,0,0,1.375h4.123v4.123a.688.688,0,0,0,1.375,0v-4.123h4.123a.688.688,0,1,0,0-1.375Z" transform="translate(-218.402 -218.304)"/>
    <path id="路径_122" data-name="路径 122" class="cls-2" d="M75.994,65.575a9.619,9.619,0,1,1-9.619,9.619,9.63,9.63,0,0,1,9.619-9.619m0-1.375A10.995,10.995,0,1,0,86.989,75.194,11,11,0,0,0,75.994,64.2Z" transform="translate(0 0)"/>
  </g>
</svg>
