<svg id="my_state_fly" xmlns="http://www.w3.org/2000/svg" width="24" height="23.999" viewBox="0 0 24 23.999">
  <defs>
    <style>
      .cls-1 {
        fill: rgba(16,139,225,0);
      }

      .cls-2 {
        fill: #3977ea;
      }
    </style>
  </defs>
  <rect id="矩形_1079" data-name="矩形 1079" class="cls-1" width="23.999" height="23.999" transform="translate(0.001 0)"/>
  <path id="形状_1080" data-name="形状 1080" class="cls-2" d="M6892.8,503.933c-1.156.377-13.083,3.862-13.083,3.862a5.337,5.337,0,0,1-5.733-1.931l2.728-1.13a2.292,2.292,0,0,0,1.48-.047l3.1-.8-4.669-6.923s-.924-1.507,2.312-.753c0,0,5.872,4.568,6.935,5.416a1.914,1.914,0,0,0,1.526,0l4.624-1.554s3.143-.989,3.837.753c.785,1.837-1.85,2.731-3.052,3.108Zm-19.371,1.413a6.685,6.685,0,0,1-1.434-2.167s.232-1.7,2.312,0a13.393,13.393,0,0,0,1.665,1.083Zm0,0" transform="translate(-6871.998 -489.759)"/>
</svg>
