<svg id="new_friends_icon" data-name="new friends_icon" xmlns="http://www.w3.org/2000/svg" viewBox="0 0 46 46">
  <defs>
    <style>
      .cls-1 {
        fill: #4cb0d6;
      }

      .cls-2 {
        fill: #fff;
      }
    </style>
  </defs>
  <circle id="Ellipse_2" data-name="Ellipse 2" class="cls-1" cx="23" cy="23" r="23"/>
  <g id="组_78" data-name="组 78" transform="translate(-25.572 -30.886)">
    <path id="路径_98" data-name="路径 98" class="cls-2" d="M55.732,64.656H38.343a1.655,1.655,0,0,1-1.771-1.61c0-.161,0-3.542,2.9-4.669a2.385,2.385,0,0,1,1.449-.483,3.209,3.209,0,0,0,1.288-.322c.805-.322,1.449-.483,1.771-.644v-.161a4.575,4.575,0,0,1-2.254-2.576c-.161,0-.161,0-.322-.161-.644-.483-.644-1.288-.805-1.61V52.1c0-.644-.161-1.61.483-2.093a10.984,10.984,0,0,1-.161-1.932V47.75a1.748,1.748,0,0,1,.644-1.449c0-.322-.161-.805,0-1.127.322-.805,1.449-.805,2.254-.805H44.3a5.882,5.882,0,0,1,2.415-.483c5.152.161,5.957,3.381,5.957,4.347a9.24,9.24,0,0,1-.161,1.932,2.384,2.384,0,0,1,.322,2.093v.322a2.174,2.174,0,0,1-.805,1.61h0A4.467,4.467,0,0,1,50.1,56.606v.161c.322.161.805.322,1.61.644a3.209,3.209,0,0,0,1.288.322,4.74,4.74,0,0,1,1.449.483,5.2,5.2,0,0,1,2.9,4.669,1.5,1.5,0,0,1-1.61,1.771ZM43.012,52.58l.161.805a2.559,2.559,0,0,0,1.771,1.932l.483.161.161,2.254-.322.322a12.424,12.424,0,0,1-2.415.966,7.324,7.324,0,0,1-1.771.483,2.781,2.781,0,0,0-1.127.322c-1.932.805-1.932,3.22-1.932,3.22H55.732s0-2.415-1.932-3.22a1.984,1.984,0,0,0-1.127-.322,6.9,6.9,0,0,1-1.61-.483c-1.771-.805-2.254-.966-2.254-.966l-.483-.322.161-2.254.483-.161a2.411,2.411,0,0,0,1.449-1.932l.161-.805.644.161V51.453H50.9l.161-1.127a5.534,5.534,0,0,0,.161-2.254c-.161-.644-.644-2.576-4.347-2.737a4.457,4.457,0,0,0-2.093.483h-1.61a1.052,1.052,0,0,1-.322,1.288l-.322.322v.644c0,.483.161,1.771.161,2.254l.161,1.127h-.644v1.288l.805-.161ZM43.173,45.5Z"/>
    <path id="路径_99" data-name="路径 99" class="cls-2" d="M804.571,512h6.44v1.61h-6.44Z" transform="translate(-751.093 -457.81)"/>
    <path id="路径_100" data-name="路径 100" class="cls-2" d="M914.286,402.286h1.61v6.44h-1.61Z" transform="translate(-858.393 -350.511)"/>
  </g>
</svg>
