<svg xmlns="http://www.w3.org/2000/svg" width="30" height="30" viewBox="0 0 30 30">
  <defs>
    <style>
      .cls-1 {
        fill: rgba(162,42,42,0.02);
      }

      .cls-2 {
        fill: #fff;
      }
    </style>
  </defs>
  <g id="icon_" data-name="icon " transform="translate(-35 -115)">
    <rect id="矩形_93" data-name="矩形 93" class="cls-1" width="30" height="30" transform="translate(35 115)"/>
    <path id="icon-退出" class="cls-2" d="M133,939H119a3,3,0,0,1-3-3V916a3,3,0,0,1,3-3h14v4H122a2,2,0,0,0-2,2v14a2,2,0,0,0,2,2h11v4h0Zm4-11H127a2,2,0,0,1,0-4h10v-4l7,6-7,6Z" transform="translate(-80 -796)"/>
  </g>
</svg>
