<svg id="sys_icon" xmlns="http://www.w3.org/2000/svg" viewBox="0 0 46 46">
  <defs>
    <style>
      .cls-1 {
        fill: #fa845a;
      }

      .cls-2 {
        fill: #fff;
      }
    </style>
  </defs>
  <circle id="Ellipse_2" data-name="Ellipse 2" class="cls-1" cx="23" cy="23" r="23"/>
  <path id="形状_2105" data-name="形状 2105" class="cls-2" d="M1166.94,3280.718v-6.6h-.838a1.722,1.722,0,1,1,0-3.444h.838v-6.6a1.084,1.084,0,0,1,2.168,0v6.6h.838a1.722,1.722,0,1,1,0,3.444h-.838v6.6a1.084,1.084,0,0,1-2.168,0Zm-7.689,0v-1.478h-.838a1.722,1.722,0,1,1,0-3.444h.838v-11.714a1.084,1.084,0,0,1,2.168,0V3275.8h.838a1.722,1.722,0,1,1,0,3.444h-.838v1.478a1.084,1.084,0,0,1-2.168,0Zm-7.689,0V3269h-.838a1.722,1.722,0,1,1,0-3.445h.838v-1.477a1.084,1.084,0,0,1,2.168,0v1.477h.838a1.722,1.722,0,1,1,0,3.445h-.838v11.715a1.084,1.084,0,0,1-2.168,0Z" transform="translate(-1136.999 -3248.999)"/>
</svg>
