<svg xmlns="http://www.w3.org/2000/svg" viewBox="0 0 24.099 24">
  <defs>
    <style>
      .cls-1 {
        fill: rgba(255,148,148,0);
      }

      .cls-2, .cls-4 {
        fill: rgba(0,0,0,0.3);
      }

      .cls-3, .cls-4 {
        stroke: none;
      }
    </style>
  </defs>
  <g id="url" transform="translate(-619.911 -895)">
    <rect id="矩形_58" data-name="矩形 58" class="cls-1" width="24" height="24" transform="translate(620 895)"/>
    <g id="路径_93" data-name="路径 93" class="cls-2" transform="translate(461.902 708.385) rotate(47)">
      <path class="cls-3" d="M262.352.005a3.584,3.584,0,0,1,1.657.375,4.3,4.3,0,0,1,1.349,1.056A5.143,5.143,0,0,1,266.276,3a5.483,5.483,0,0,1,.337,1.933l-.02,11.025a7.054,7.054,0,0,1-.348,2.149,6.84,6.84,0,0,1-1.023,2.018,5.715,5.715,0,0,1-1.673,1.511,4.427,4.427,0,0,1-2.285.614,4.37,4.37,0,0,1-2.246-.549,5.44,5.44,0,0,1-1.664-1.465,6.723,6.723,0,0,1-1.036-1.991,6.874,6.874,0,0,1-.355-2.128l.021-9.782a.545.545,0,0,1,.27-.45.9.9,0,0,1,.494-.193,1.063,1.063,0,0,1,.489.19.519.519,0,0,1,.28.439l-.022,9.752a5.658,5.658,0,0,0,.226,1.559,4.313,4.313,0,0,0,.694,1.409,3.591,3.591,0,0,0,1.176,1.015,3.376,3.376,0,0,0,1.67.374,3.107,3.107,0,0,0,1.568-.419,3.99,3.99,0,0,0,1.192-1.059,5.135,5.135,0,0,0,.758-1.43,4.751,4.751,0,0,0,.27-1.563l.018-11a3.882,3.882,0,0,0-.218-1.363,3.065,3.065,0,0,0-.577-.985,2.249,2.249,0,0,0-.853-.6,2.763,2.763,0,0,0-1.063-.192,2.081,2.081,0,0,0-1.681.839,3.823,3.823,0,0,0-.627,2.376l-.009,9.94a1.534,1.534,0,0,0,.355,1.059,1.037,1.037,0,0,0,.8.39.965.965,0,0,0,.846-.477,1.824,1.824,0,0,0,.3-.993l.009-9.016a.544.544,0,0,1,.272-.451.9.9,0,0,1,.494-.192.946.946,0,0,1,.5.176.516.516,0,0,1,.278.438l-.022,9.03a5.343,5.343,0,0,1-.233,1.722,2.966,2.966,0,0,1-.61,1.082,2.077,2.077,0,0,1-.859.564,3.428,3.428,0,0,1-.988.183,2.424,2.424,0,0,1-.884-.143,2.247,2.247,0,0,1-.874-.563,3.2,3.2,0,0,1-.663-1.07,4.521,4.521,0,0,1-.256-1.7c0-.346,0-.66-.014-.939-.008-.24-.01-.46-.006-.657s.006-.306.006-.325V5.056A6.785,6.785,0,0,1,258.76,3.1a5.117,5.117,0,0,1,.775-1.6A3.924,3.924,0,0,1,260.751.418,3.247,3.247,0,0,1,262.352.005Z"/>
      <path class="cls-4" d="M 262.3887023925781 0.004831314086914063 C 262.3763427734375 0.004831314086914063 262.3638916015625 0.004888534545898438 262.3515014648438 0.005001068115234375 C 261.7588195800781 0.01123237609863281 261.2244567871094 0.1483821868896484 260.7512512207031 0.4180221557617188 C 260.2781677246094 0.6875419616699219 259.87255859375 1.050050735473633 259.5345153808594 1.505661010742188 C 259.1991882324219 1.961952209472656 258.9393005371094 2.49420166015625 258.7598571777344 3.102540969848633 C 258.5791320800781 3.710882186889648 258.489501953125 4.362041473388672 258.4907531738281 5.05592155456543 L 258.4920349121094 13.10346126556396 C 258.4920349121094 13.12248134613037 258.489501953125 13.23116111755371 258.4855651855469 13.42871189117432 C 258.4815979003906 13.62626171112061 258.4842529296875 13.84561157226563 258.4920349121094 14.08588123321533 C 258.5023498535156 14.3648509979248 258.5063171386719 14.67865180969238 258.5063171386719 15.02480125427246 C 258.4998168945313 15.70923137664795 258.5855407714844 16.27407073974609 258.7624206542969 16.72012138366699 C 258.9405822753906 17.16628074645996 259.1628112792969 17.52267074584961 259.4253845214844 17.79019165039063 C 259.6906433105469 18.05771255493164 259.9817810058594 18.24503135681152 260.2990112304688 18.35303115844727 C 260.5839538574219 18.44944953918457 260.8499755859375 18.49749183654785 261.0989685058594 18.49749183654785 C 261.1271667480469 18.49749183654785 261.1551818847656 18.49687385559082 261.1829528808594 18.49564170837402 C 261.5188598632813 18.48369216918945 261.8515014648438 18.42216110229492 262.1709594726563 18.31288146972656 C 262.4932556152344 18.20432090759277 262.779296875 18.01622200012207 263.0300598144531 17.74870109558105 C 263.2811584472656 17.48118209838867 263.4839477539063 17.12067031860352 263.639892578125 16.66651153564453 C 263.7958984375 16.21234130859375 263.8739624023438 15.63859176635742 263.8727111816406 14.94472122192383 L 263.8947143554688 5.914642333984375 C 263.8947143554688 5.74144172668457 263.8011474609375 5.594841003417969 263.6164855957031 5.476711273193359 C 263.4313659667969 5.359231948852539 263.2666625976563 5.300815582275391 263.1197509765625 5.300819396972656 C 263.1181030273438 5.300819396972656 263.116455078125 5.300827026367188 263.1148071289063 5.30084228515625 C 262.9664916992188 5.302291870117188 262.8013610839844 5.366031646728516 262.6208190917969 5.493061065673828 C 262.4388427734375 5.620090484619141 262.3489685058594 5.770030975341797 262.3489685058594 5.943891525268555 L 262.3400268554688 14.95963096618652 C 262.3400268554688 15.30657196044922 262.238525390625 15.63727188110352 262.0384521484375 15.95229148864746 C 261.8355712890625 16.26730155944824 261.5547180175781 16.42625045776367 261.192138671875 16.42959213256836 C 261.1891174316406 16.42961883544922 261.1861572265625 16.42963218688965 261.1831359863281 16.42963218688965 C 260.8890075683594 16.42963218688965 260.6268310546875 16.29990005493164 260.3938903808594 16.03983116149902 C 260.1586608886719 15.77709197998047 260.0403747558594 15.42470169067383 260.0390625 14.98132133483887 L 260.0481262207031 5.040901184082031 C 260.046875 4.000741958618164 260.2547912597656 3.209091186523438 260.6746826171875 2.665271759033203 C 261.0945434570313 2.122112274169922 261.6534423828125 1.842361450195313 262.3555908203125 1.826122283935547 C 262.366943359375 1.825998306274414 262.3782653808594 1.825935363769531 262.3895874023438 1.825935363769531 C 262.7549133300781 1.825935363769531 263.0985717773438 1.890476226806641 263.4187622070313 2.018220901489258 C 263.7432861328125 2.146322250366211 264.0351257324219 2.351011276245117 264.271484375 2.616331100463867 C 264.5121459960938 2.884620666503906 264.7032775878906 3.212541580200195 264.8488464355469 3.600860595703125 C 264.994384765625 3.989841461181641 265.0672607421875 4.444122314453125 265.0672607421875 4.964141845703125 L 265.0489196777344 15.95974159240723 C 265.0489196777344 16.47987174987793 264.9592590332031 17.00067138671875 264.778564453125 17.52268218994141 C 264.6017761230469 18.03923034667969 264.3457946777344 18.52234077453613 264.0207214355469 18.95315170288086 C 263.6959228515625 19.38507080078125 263.2992248535156 19.73735046386719 262.8288269042969 20.01177215576172 C 262.3609008789063 20.28596115112305 261.8370056152344 20.42578125 261.260986328125 20.43123054504395 C 261.2459106445313 20.43137359619141 261.2309875488281 20.43144607543945 261.2160339355469 20.43144607543945 C 260.5903625488281 20.43144607543945 260.0488891601563 20.30646324157715 259.590576171875 20.05715179443359 C 259.1199645996094 19.80120086669922 258.728759765625 19.46305084228516 258.4140930175781 19.04214096069336 C 258.0994262695313 18.62123107910156 257.8681335449219 18.15138244628906 257.7199096679688 17.63336181640625 C 257.5703735351563 17.11468124389648 257.4950256347656 16.59455108642578 257.4937133789063 16.07442092895508 L 257.515869140625 6.321981430053711 C 257.5146179199219 6.14813232421875 257.4222717285156 6.002191543579102 257.2363586425781 5.883392333984375 C 257.0517272949219 5.765260696411133 256.887939453125 5.701412200927734 256.7475891113281 5.693290710449219 C 256.599365234375 5.694622039794922 256.435546875 5.759031295776367 256.2536010742188 5.88606071472168 C 256.0727844238281 6.012981414794922 255.9831237792969 6.163030624389648 255.9831237792969 6.336221694946289 L 255.9623413085938 16.1177921295166 C 255.9623413085938 16.81167221069336 256.0819396972656 17.52045059204102 256.3172607421875 18.24570083618164 C 256.5505676269531 18.96668243408203 256.9010620117188 19.64029121398926 257.3533020019531 20.23701095581055 C 257.8070068359375 20.8392219543457 258.3620300292969 21.32810211181641 259.0172424316406 21.70218086242676 C 259.6610717773438 22.06844711303711 260.3906860351563 22.251708984375 261.2100524902344 22.251708984375 C 261.2277526855469 22.251708984375 261.2456359863281 22.25162315368652 261.2634582519531 22.25145149230957 C 262.1200256347656 22.24322128295898 262.8831176757813 22.03888130187988 263.5486450195313 21.63766098022461 C 264.2168579101563 21.23633193969727 264.7732238769531 20.73255157470703 265.2216491699219 20.1263313293457 C 265.6701354980469 19.51988220214844 266.0107116699219 18.84714126586914 266.2446594238281 18.10843086242676 C 266.4786376953125 17.36917114257813 266.594482421875 16.65271186828613 266.5929565429688 15.95962142944336 L 266.612548828125 4.934782028198242 C 266.6112670898438 4.241682052612305 266.4994812011719 3.597301483154297 266.2758483886719 3.001861572265625 C 266.0523681640625 2.407211303710938 265.7455444335938 1.88507080078125 265.3582763671875 1.436250686645508 C 264.9707641601563 0.9867515563964844 264.5211791992188 0.6350307464599609 264.0088500976563 0.3797512054443359 C 263.5073547363281 0.129791259765625 262.9685668945313 0.004831314086914063 262.3887023925781 0.004831314086914063 M 262.3887023925781 -0.1951694488525391 C 262.9958801269531 -0.1951694488525391 263.5709838867188 -0.06195831298828125 264.0980529785156 0.2007522583007813 C 264.6321716308594 0.4668807983398438 265.1071472167969 0.8386306762695313 265.509765625 1.305662155151367 C 265.912109375 1.771970748901367 266.2328796386719 2.319002151489258 266.4630737304688 2.931501388549805 C 266.6936645507813 3.545431137084961 266.8112182617188 4.219301223754883 266.8125610351563 4.934412002563477 L 266.79296875 15.95998191833496 C 266.7945251464844 16.67065048217773 266.6741943359375 17.41407203674316 266.4353332519531 18.16878128051758 C 266.1954345703125 18.92632102966309 265.8411865234375 19.62494087219238 265.3824462890625 20.2452507019043 C 264.9193725585938 20.87130165100098 264.3370361328125 21.39745140075684 263.651611328125 21.80911064147949 C 262.9589233398438 22.22672080993652 262.1559753417969 22.44288063049316 261.265380859375 22.45144081115723 C 261.2469177246094 22.45162200927734 261.2283935546875 22.45171165466309 261.2100219726563 22.45171165466309 C 260.3609008789063 22.45171165466309 259.5898742675781 22.25802230834961 258.9183654785156 21.87602233886719 C 258.2421875 21.48997116088867 257.6619567871094 20.97907066345215 257.1935729980469 20.35736083984375 C 256.7267761230469 19.74145126342773 256.3678283691406 19.05155181884766 256.1269836425781 18.30727195739746 C 255.8850402832031 17.56166076660156 255.7623596191406 16.8249626159668 255.7623596191406 16.1177921295166 L 255.7831115722656 6.335801124572754 C 255.7831115722656 6.170042037963867 255.8448181152344 5.928642272949219 256.1387023925781 5.722360610961914 C 256.3571472167969 5.569841384887695 256.5556030273438 5.495000839233398 256.7457885742188 5.493301391601563 L 256.7524719238281 5.493242263793945 L 256.7591247558594 5.493621826171875 C 256.93359375 5.503721237182617 257.1304016113281 5.578170776367188 257.3441467285156 5.714921951293945 C 257.649169921875 5.909820556640625 257.7146301269531 6.15184211730957 257.7158508300781 6.320541381835938 L 257.6937255859375 16.07487106323242 C 257.6949768066406 16.57369232177734 257.7684326171875 17.07972145080566 257.9120788574219 17.57796096801758 C 258.0531921386719 18.07115173339844 258.2759704589844 18.52335166931152 258.5742797851563 18.92239189147949 C 258.8705139160156 19.31863212585449 259.2445983886719 19.64131164550781 259.6861267089844 19.88145065307617 C 260.113037109375 20.11369132995605 260.6277770996094 20.23144149780273 261.2160339355469 20.23144149780273 L 261.2591247558594 20.23124122619629 C 261.7983703613281 20.22614097595215 262.29248046875 20.09424209594727 262.7277221679688 19.83921051025391 C 263.1728515625 19.57952117919922 263.5540161132813 19.24103164672852 263.8608703613281 18.83295059204102 C 264.174072265625 18.41787147521973 264.4190979003906 17.95533180236816 264.58935546875 17.45792198181152 C 264.7616577148438 16.96009063720703 264.8489074707031 16.45625114440918 264.8489074707031 15.95974159240723 L 264.8672790527344 4.963811874389648 C 264.8672790527344 4.470911026000977 264.7980346679688 4.035810470581055 264.6615295410156 3.670951843261719 C 264.5246887207031 3.305891036987305 264.3433532714844 2.995962142944336 264.1226196289063 2.749881744384766 C 263.9077758789063 2.50874137878418 263.63916015625 2.320241928100586 263.3453369140625 2.204252243041992 C 263.0485229492188 2.085842132568359 262.7271728515625 2.025932312011719 262.3895874023438 2.025932312011719 L 262.3576965332031 2.026111602783203 C 261.7171020507813 2.04094123840332 261.217529296875 2.290040969848633 260.8329162597656 2.787591934204102 C 260.4437255859375 3.291671752929688 260.2469482421875 4.049741744995117 260.2481384277344 5.040660858154297 L 260.2390747070313 14.98150157928467 C 260.240234375 15.37657165527344 260.3396301269531 15.67937088012695 260.5429077148438 15.90642166137695 C 260.7376708984375 16.1239013671875 260.9471130371094 16.2296314239502 261.1831359863281 16.2296314239502 L 261.1901550292969 16.22960090637207 C 261.4865417480469 16.22687149047852 261.70263671875 16.10434150695801 261.8703002929688 15.84400177001953 C 262.0490417480469 15.56256103515625 262.1400146484375 15.26465129852295 262.1400146484375 14.95963096618652 L 262.1489562988281 5.943691253662109 C 262.1489562988281 5.701461791992188 262.2691955566406 5.494602203369141 262.50634765625 5.329071044921875 C 262.7187194824219 5.179632186889648 262.9230041503906 5.102710723876953 263.1128540039063 5.100851058959961 L 263.1138305664063 5.100841522216797 L 263.1197509765625 5.100820541381836 C 263.3066101074219 5.100811004638672 263.5041198730469 5.16853141784668 263.7236633300781 5.307851791381836 C 264.0304565429688 5.504100799560547 264.0947265625 5.746110916137695 264.0947265625 5.914642333984375 L 264.0727233886719 14.94521141052246 C 264.0740051269531 15.65575122833252 263.9920043945313 16.25703048706055 263.8290405273438 16.73148155212402 C 263.6644287109375 17.21092224121094 263.4446411132813 17.59922027587891 263.1758728027344 17.88558197021484 C 262.9033508300781 18.17632102966309 262.5867004394531 18.38389205932617 262.2348022460938 18.50242233276367 C 261.8975219726563 18.6177921295166 261.5457458496094 18.682861328125 261.1900634765625 18.69551086425781 C 261.1611022949219 18.69680213928223 261.130126953125 18.69749069213867 261.0989685058594 18.69749069213867 C 260.82958984375 18.69749069213867 260.5388793945313 18.64534187316895 260.2348937988281 18.54248046875 C 259.8889770507813 18.42470169067383 259.5689392089844 18.2190113067627 259.2833557128906 17.93101119995117 C 259.0003662109375 17.64268112182617 258.7628479003906 17.26047134399414 258.5766906738281 16.79429244995117 C 258.3905334472656 16.32483100891113 258.2996215820313 15.72900199890137 258.3063354492188 15.02290153503418 C 258.3063049316406 14.65549087524414 258.3016967773438 14.35078144073486 258.2921752929688 14.09327125549316 C 258.2838439941406 13.83651161193848 258.2817077636719 13.61812114715576 258.2856140136719 13.42469120025635 L 258.2895812988281 13.22994136810303 C 258.2911071777344 13.15671157836914 258.2920227050781 13.11450099945068 258.2920227050781 13.10346126556396 L 258.2907409667969 5.055952072143555 C 258.2894897460938 4.34596061706543 258.3828125 3.669462203979492 258.5681457519531 3.045591354370117 C 258.7520751953125 2.421981811523438 259.0230407714844 1.863901138305664 259.3733520507813 1.387222290039063 C 259.7269287109375 0.9106807708740234 260.1570129394531 0.5263805389404297 260.6522521972656 0.2442417144775391 C 261.1521606445313 -0.040618896484375 261.7231750488281 -0.1884078979492188 262.3493957519531 -0.1949882507324219 L 262.3887023925781 -0.1951694488525391 Z"/>
    </g>
  </g>
</svg>
