<?xml version="1.0" standalone="no"?><!DOCTYPE svg PUBLIC "-//W3C//DTD SVG 1.1//EN" "http://www.w3.org/Graphics/SVG/1.1/DTD/svg11.dtd"><svg t="1545307831162" class="icon" style="" viewBox="0 0 1024 1024" version="1.1" xmlns="http://www.w3.org/2000/svg" p-id="1159" xmlns:xlink="http://www.w3.org/1999/xlink" width="200" height="200"><defs><style type="text/css"></style></defs><path d="M986.624 302.848c-130.92864 97.59744-304.07168 156.17536-466.58048 157.25568-161.5872 1.07008-336.72192-60.46208-466.58048-157.25568-26.50624-19.75808-51.98336 24.71936-25.84064 44.2112 43.93984 32.74752 93.76256 58.752 143.31392 81.69984 109.44 50.68288 228.11648 81.7408 349.1072 82.54464 118.71744 0.78848 235.64288-31.73376 343.29088-79.89248 51.6608-23.1168 103.59296-50.41152 149.13024-84.352 26.14784-19.49184 0.6656-63.96928-25.84064-44.2112z" p-id="1160"></path><path d="M363.58144 478.8992l-26.5472 157.71648c-5.43744 32.28672 43.89888 46.11584 49.37216 13.60896l26.5472-157.71648c5.43232-32.28672-43.89888-46.11584-49.37216-13.60896zM645.83168 492.50816l26.5472 157.71648c5.46816 32.50688 54.80448 18.67264 49.37216-13.60896l-26.5472-157.71648c-5.47328-32.50688-54.8096-18.67776-49.37216 13.60896zM119.84896 373.2736L31.5136 515.47136c-17.47456 28.12928 26.8288 53.81632 44.2112 25.84064l88.33536-142.19776c17.47456-28.12928-26.83392-53.81632-44.2112-25.84064zM850.62656 421.7088l88.33536 142.208c17.3824 27.97568 61.68576 2.28864 44.2112-25.84064l-88.33536-142.208c-17.3824-27.97568-61.68576-2.28864-44.2112 25.84064z" p-id="1161"></path></svg>