<svg xmlns="http://www.w3.org/2000/svg" xmlns:xlink="http://www.w3.org/1999/xlink" width="284.01" height="85.008" viewBox="0 0 284.01 85.008">
  <defs>
    <style>
      .cls-1 {
        fill: #189271;
      }

      .cls-2 {
        clip-path: url(#clip-path);
      }

      .cls-3 {
        clip-path: url(#clip-path-2);
      }

      .cls-4 {
        fill: url(#linear-gradient);
      }

      .cls-5 {
        clip-path: url(#clip-path-3);
      }

      .cls-6 {
        clip-path: url(#clip-path-4);
      }

      .cls-7 {
        fill: url(#linear-gradient-2);
      }

      .cls-8 {
        clip-path: url(#clip-path-5);
      }

      .cls-9 {
        clip-path: url(#clip-path-6);
      }

      .cls-10 {
        fill: url(#linear-gradient-3);
      }

      .cls-11 {
        clip-path: url(#clip-path-7);
      }

      .cls-12 {
        clip-path: url(#clip-path-8);
      }

      .cls-13 {
        fill: url(#linear-gradient-4);
      }

      .cls-14 {
        clip-path: url(#clip-path-9);
      }

      .cls-15 {
        clip-path: url(#clip-path-10);
      }

      .cls-16 {
        fill: url(#linear-gradient-5);
      }

      .cls-17 {
        clip-path: url(#clip-path-11);
      }

      .cls-18 {
        clip-path: url(#clip-path-12);
      }

      .cls-19 {
        fill: url(#linear-gradient-6);
      }

      .cls-20 {
        fill: #fff;
      }
    </style>
    <clipPath id="clip-path">
      <path id="路径_42" data-name="路径 42" d="M2.1,9.135c.194,1.166.583,4.08,12.241,3.5,6.8-.194,17.293-2.915,17.293-2.915L32.023,6.8c0-2.915-8.744-.389-16.9-.194C7.152,6.8,3.849,4.472,2.1,3.5Z" transform="translate(-2.1 -3.5)"/>
    </clipPath>
    <clipPath id="clip-path-2">
      <rect id="矩形_32" data-name="矩形 32" width="29.923" height="9.715"/>
    </clipPath>
    <linearGradient id="linear-gradient" x1="3.746" y1="34.661" x2="3.763" y2="34.661" gradientUnits="objectBoundingBox">
      <stop offset="0" stop-color="#755200"/>
      <stop offset="0.019" stop-color="#7f5b02"/>
      <stop offset="0.116" stop-color="#ad8300"/>
      <stop offset="0.207" stop-color="#d1a200"/>
      <stop offset="0.289" stop-color="#eab800"/>
      <stop offset="0.359" stop-color="#f8c600"/>
      <stop offset="0.409" stop-color="#fcc900"/>
      <stop offset="0.477" stop-color="#ecbb00"/>
      <stop offset="0.73" stop-color="#ad8300"/>
      <stop offset="0.91" stop-color="#846003"/>
      <stop offset="1" stop-color="#755200"/>
    </linearGradient>
    <clipPath id="clip-path-3">
      <path id="路径_43" data-name="路径 43" d="M16.127,13.409A44.239,44.239,0,0,1,0,11.854V17.3c0,1.943,7.967,2.332,16.322,1.943,11.27-.777,14.767-2.332,14.767-2.332L33.226,10.3a85.555,85.555,0,0,1-17.1,3.109" transform="translate(0 -10.3)"/>
    </clipPath>
    <clipPath id="clip-path-4">
      <rect id="矩形_34" data-name="矩形 34" width="33.421" height="9.327"/>
    </clipPath>
    <linearGradient id="linear-gradient-2" x1="3.515" y1="34.847" x2="3.53" y2="34.847" xlink:href="#linear-gradient"/>
    <clipPath id="clip-path-5">
      <path id="路径_44" data-name="路径 44" d="M1.2,23.029c0,.777,2.137,1.749,8.744,2.332,4.275.389,13.019.389,13.019.389V20.892c0-1.554-6.606-1.166-11.658-1.36C3.92,19.143,1.2,17.2,1.2,17.2v5.829Z" transform="translate(-1.2 -17.2)"/>
    </clipPath>
    <clipPath id="clip-path-6">
      <rect id="矩形_36" data-name="矩形 36" width="21.762" height="8.55"/>
    </clipPath>
    <linearGradient id="linear-gradient-3" x1="5.04" y1="35.988" x2="5.064" y2="35.988" xlink:href="#linear-gradient"/>
    <clipPath id="clip-path-7">
      <path id="路径_45" data-name="路径 45" d="M26.231,8.209A105.343,105.343,0,0,0,15.545,9.958a87.43,87.43,0,0,0-9.91,2.526C3.109,13.455,0,15.4,0,16.953v5.441c0-.972,3.109-2.526,7.967-4.08,0,0,4.08-1.166,7.772-1.943,4.858-.972,10.1-1.554,10.1-1.554a.893.893,0,0,1,1.166.972v2.332c0,.972-1.749,2.332-2.72,2.526-1.166.389-6.024,1.749-8.161,2.137-1.943.389-8.549,1.749-8.549,1.749-2.915.777-5.246,2.526-5.246,4.08V34.44c.972-2.137,4.275-3.3,7.772-4.275,1.166-.194,2.915-.583,6.218-1.36,6.412-1.36,13.019-3.3,13.019-3.3C31.866,24.336,34,21.81,34,19.284V5.1c0,.972-5.441,2.526-7.772,3.109" transform="translate(0 -5.1)"/>
    </clipPath>
    <clipPath id="clip-path-8">
      <rect id="矩形_38" data-name="矩形 38" width="34.004" height="29.535"/>
    </clipPath>
    <linearGradient id="linear-gradient-4" x1="3.461" y1="11.36" x2="3.476" y2="11.36" gradientUnits="objectBoundingBox">
      <stop offset="0" stop-color="#006b37"/>
      <stop offset="0.061" stop-color="#008039"/>
      <stop offset="0.141" stop-color="#019938"/>
      <stop offset="0.207" stop-color="#3aab36"/>
      <stop offset="0.253" stop-color="#46b035"/>
      <stop offset="0.371" stop-color="#36a837"/>
      <stop offset="0.571" stop-color="#009139"/>
      <stop offset="0.827" stop-color="#007138"/>
      <stop offset="0.876" stop-color="#006b37"/>
      <stop offset="1" stop-color="#006b37"/>
    </linearGradient>
    <clipPath id="clip-path-9">
      <path id="路径_46" data-name="路径 46" d="M12.927,24.541c-4.275.972-7,1.554-9.327.583v5.441c1.554,1.554,4.858,1.749,10.1,0,6.024-1.943,7-4.858,7-6.8V19.1c0,1.166-1.749,4.08-7.772,5.441" transform="translate(-3.6 -19.1)"/>
    </clipPath>
    <clipPath id="clip-path-10">
      <rect id="矩形_40" data-name="矩形 40" width="17.293" height="13.213"/>
    </clipPath>
    <linearGradient id="linear-gradient-5" x1="5.879" y1="22.77" x2="5.909" y2="22.77" xlink:href="#linear-gradient-4"/>
    <clipPath id="clip-path-11">
      <path id="路径_47" data-name="路径 47" d="M10.067,1.166C3.072,3.3,2.1,5.246,2.1,6.606v5.829c.194-1.166,1.943-3.3,8.744-4.663a44.157,44.157,0,0,1,12.63-.583v-7A30.084,30.084,0,0,0,19.2,0a31.616,31.616,0,0,0-9.132,1.166" transform="translate(-2.1)"/>
    </clipPath>
    <clipPath id="clip-path-12">
      <rect id="矩形_42" data-name="矩形 42" width="21.568" height="12.436"/>
    </clipPath>
    <linearGradient id="linear-gradient-6" x1="4.992" y1="27.25" x2="5.016" y2="27.25" xlink:href="#linear-gradient-4"/>
  </defs>
  <g id="logo" transform="translate(-818 -249)">
    <path id="多边形_1" data-name="多边形 1" class="cls-1" d="M1098.838,302.074q-6.33,10.572-12.292,21.357T1068.293,334c-8.194-.142-208.4-.142-216.59,0s-14.279-3.381-18.253-10.572-8.071-14.309-12.292-21.357-4.22-14.1,0-21.143,8.317-14.167,12.292-21.357S843.508,248.861,851.7,249s208.4.142,216.59,0,14.279,3.382,18.253,10.572,8.072,14.309,12.292,21.357S1103.058,295.027,1098.838,302.074Z" transform="translate(0.007 0.001)"/>
    <g id="logo-2" data-name="logo" transform="translate(798.204 233.863)">
      <g id="组_56" data-name="组 56" transform="translate(63.796 33.137)">
        <g id="组_47" data-name="组 47">
          <g id="组_31" data-name="组 31" transform="translate(4.08 6.801)">
            <g id="组_30" data-name="组 30" class="cls-2">
              <g id="组_29" data-name="组 29" class="cls-3">
                <rect id="矩形_31" data-name="矩形 31" class="cls-4" width="29.923" height="9.715"/>
              </g>
            </g>
          </g>
          <g id="组_34" data-name="组 34" transform="translate(0 19.852)">
            <g id="组_33" data-name="组 33" class="cls-5">
              <g id="组_32" data-name="组 32" class="cls-6" transform="translate(0 0.194)">
                <rect id="矩形_33" data-name="矩形 33" class="cls-7" width="33.421" height="9.327"/>
              </g>
            </g>
          </g>
          <g id="组_37" data-name="组 37" transform="translate(2.332 33.155)">
            <g id="组_36" data-name="组 36" class="cls-8">
              <g id="组_35" data-name="组 35" class="cls-9" transform="translate(0)">
                <rect id="矩形_35" data-name="矩形 35" class="cls-10" width="21.762" height="8.55"/>
              </g>
            </g>
          </g>
          <g id="组_40" data-name="组 40" transform="translate(0 9.748)">
            <g id="组_39" data-name="组 39" class="cls-11">
              <g id="组_38" data-name="组 38" class="cls-12">
                <rect id="矩形_37" data-name="矩形 37" class="cls-13" width="34.004" height="29.535"/>
              </g>
            </g>
          </g>
          <g id="组_43" data-name="组 43" transform="translate(6.995 36.784)">
            <g id="组_42" data-name="组 42" class="cls-14">
              <g id="组_41" data-name="组 41" class="cls-15" transform="translate(0)">
                <rect id="矩形_39" data-name="矩形 39" class="cls-16" width="17.099" height="13.213"/>
              </g>
            </g>
          </g>
          <g id="组_46" data-name="组 46" transform="translate(4.08)">
            <g id="组_45" data-name="组 45" class="cls-17">
              <g id="组_44" data-name="组 44" class="cls-18">
                <rect id="矩形_41" data-name="矩形 41" class="cls-19" width="21.568" height="12.436"/>
              </g>
            </g>
          </g>
        </g>
        <g id="组_54" data-name="组 54" transform="translate(41.953 6.801)">
          <path id="路径_48" data-name="路径 48" class="cls-20" d="M36.19,14.027h8.355l1.36-2.137H35.8a35.619,35.619,0,0,0,.583-5.052h7.578L45.128,4.7H23.172l.583,2.137h7.967a25.549,25.549,0,0,1-.583,5.052H22.2l.583,2.137h7.578A21.044,21.044,0,0,1,22.2,24.519l.972,1.554s7.578-2.526,10.687-9.715A16.227,16.227,0,0,0,45.322,25.88V21.8A16.914,16.914,0,0,1,36.19,14.027Z" transform="translate(-22.2 -2.368)"/>
          <g id="组_48" data-name="组 48" transform="translate(25.843 0.583)">
            <path id="路径_49" data-name="路径 49" class="cls-20" d="M42.135,7.4l-2.526,2.915A24.82,24.82,0,0,0,36.5,5.46L38.054,4.1A15.859,15.859,0,0,1,42.135,7.4Z" transform="translate(-34.557 -3.517)"/>
            <path id="路径_50" data-name="路径 50" class="cls-20" d="M37.054,6.4,35.5,7.76a34.534,34.534,0,0,1,2.526,4.858l2.526-3.109A15.291,15.291,0,0,0,37.054,6.4Z" transform="translate(-35.5 -1.348)"/>
            <path id="路径_51" data-name="路径 51" class="cls-20" d="M41.241,8.3l1.166.583-3.5,7.384a31.446,31.446,0,0,1,3.886,3.5l-4.663,3.3s-.972-5.246-2.332-7Z" transform="translate(-35.217 0.444)"/>
            <path id="路径_52" data-name="路径 52" class="cls-20" d="M48.41,18.373h6.023L55.6,16.236H48.41v-1.36h1.749v.583l3.886-.583v-3.3h1.749l1.166-.972L55.016,8.852l-.972.777V8.463L55.21,7.3l-3.5-2.72L50.158,6.132H48.41V4.383L44.329,3.8V6.132H40.443l.389,1.943h3.5v1.36H39.666l.389,1.943h4.275v1.36H40.443l.389,1.943h3.5v1.36H39.277l.583,2.137h4.469v1.554H38.5l.583,2.137h5.441V27.7l4.08-.583V22.065h6.8l1.166-2.137H48.6V18.373Zm0-10.1h1.749v1.36H48.41Zm0,3.3h1.749v1.36H48.41Z" transform="translate(-32.671 -3.8)"/>
          </g>
          <path id="路径_53" data-name="路径 53" class="cls-20" d="M72.311,20.016l-3.3-2.332a14.992,14.992,0,0,1-3.3,3.692,24.6,24.6,0,0,0-5.441-1.166L59.1,22.154s.972.389,2.526.972H61.43a33.6,33.6,0,0,1-4.663.777v-4.08h7.772v.194H65.9a9.78,9.78,0,0,0,2.526-3.109V12.632l.583-.389c.583.194,1.36.583,1.943.777L72.7,8.941a39.822,39.822,0,0,1-10.687-3.5A5.5,5.5,0,0,0,62.6,4.277L57.738,3.5C55.406,8.941,48.8,11.661,48.8,11.661l.777,1.554C55.6,11.467,58.9,8.746,60.653,6.8A23.269,23.269,0,0,0,65.51,10.5l-.583.583H62.013l1.166-.972a8.462,8.462,0,0,0-2.526-1.749L58.71,9.912a5.982,5.982,0,0,1,1.166,1.166H56.961a18.4,18.4,0,0,1-4.275,1.943V23.9H52.1l.777,4.08a34.743,34.743,0,0,0,10.1-3.3l-.194-1.166A41.29,41.29,0,0,1,69.4,27.4l3.3-3.3s-1.554-.777-3.886-1.749A27.273,27.273,0,0,0,72.311,20.016Zm-15.545-7h7.772v1.166H56.767Zm0,3.3h7.772v1.36H56.767Z" transform="translate(2.886 -3.5)"/>
          <g id="组_50" data-name="组 50" transform="translate(78.694)">
            <path id="路径_54" data-name="路径 54" class="cls-20" d="M66.78,21.924l-4.08.389V9.1l4.08.389Z" transform="translate(-62.7 1.781)"/>
            <g id="组_49" data-name="组 49" transform="translate(4.858 10.881)">
              <path id="路径_55" data-name="路径 55" class="cls-20" d="M71.806,12.015,68.115,9.1l-1.943,1.554H65.2v2.332h1.166v5.441H65.2v2.332h1.166v1.36l4.275-.389V13.18l1.166-1.166v10.3l4.275-.583V9.489L71.806,9.1Z" transform="translate(-65.2 -9.1)"/>
              <path id="路径_56" data-name="路径 56" class="cls-20" d="M74.5,9.1,72.56,10.654H71.2v2.332h1.36v5.441H71.2v2.332h1.36v1.749l4.275-.583V13.18l1.36-1.166Z" transform="translate(-59.542 -9.1)"/>
            </g>
            <path id="路径_57" data-name="路径 57" class="cls-20" d="M78.484,3.5,76.541,5.249H71.684L69.935,7.386h6.606v3.5H68.963V4.666L64.3,4.083v10.3l4.663-.583v-.777h7.384v1.36L81.01,13.8V7.58l1.166-1.166Z" transform="translate(-61.191 -3.5)"/>
          </g>
          <g id="组_52" data-name="组 52" transform="translate(103.954 0.389)">
            <g id="组_51" data-name="组 51" transform="translate(0)">
              <rect id="矩形_43" data-name="矩形 43" class="cls-20" width="4.469" height="1.749" transform="translate(10.881 0.194)"/>
              <path id="路径_58" data-name="路径 58" class="cls-20" d="M91.05,15.358V14.193h5.829l1.166-1.943H90.856v-.972h5.829l1.166-1.943H90.662V8.363h6.218L98.045,6.42H86.581v8.938H82.306V14.193h3.5V12.25h-3.5v-.972h3.5V9.335h-3.5V8.363h3.5V6.226H83.472c.194-.583.583-.972.777-1.554L79.78,3.7a22.414,22.414,0,0,1-4.08,8.938l.972,1.749a18.266,18.266,0,0,0,1.749-1.554V17.3H97.657l1.166-1.943H91.05Z" transform="translate(-75.7 -3.7)"/>
            </g>
            <path id="路径_59" data-name="路径 59" class="cls-20" d="M99.505,16.441c-5.441-1.166-7.578-2.526-7.772-2.72H98.34l1.166-2.137H89.79V11H85.321v.777H76.189l.583,2.137H82.6a18.044,18.044,0,0,1-6.8,4.275l.972,1.943a24.72,24.72,0,0,0,8.355-3.692v3.886l4.469-.583V15.858a24.4,24.4,0,0,0,6.8,4.275Z" transform="translate(-75.606 3.184)"/>
          </g>
          <g id="组_53" data-name="组 53" transform="translate(131.351)">
            <path id="路径_60" data-name="路径 60" class="cls-20" d="M109.036,3.5l-1.749,1.554H96.8L95.046,7.192h12.241v3.5h-.194l-1.166-1.166-1.36,1.166h-.194V8.358l-4.08-.583v2.915H94.852l.583,1.943h3.109a14.239,14.239,0,0,1-4.858,6.606V4.472L89.8,4.083V27.788l3.886-.583v-.972h13.99v1.36l4.08-.583V7.58l1.166-1.166Zm-1.749,20.6H93.3v-3.3l.777.972A17.738,17.738,0,0,0,99.9,16.907v2.915h0c0,.583-.777.389-.777.389l-1.943-.194-.194,1.749c3.109,0,2.72,2.137,2.72,2.137h2.137c2.526-.389,2.332-3.109,2.332-3.109V12.827h2.72l.389-.389V24.1Z" transform="translate(-89.8 -3.5)"/>
          </g>
        </g>
        <g id="组_55" data-name="组 55" transform="translate(42.148 34.841)">
          <path id="路径_61" data-name="路径 61" class="cls-20" d="M31.627,18.3H22.3v1.554h3.692V28.21h1.749V19.854h2.526Z" transform="translate(-22.3 -17.911)"/>
          <path id="路径_62" data-name="路径 62" class="cls-20" d="M29.749,28.3H28V18.2l1.749,1.36Z" transform="translate(-16.925 -18.006)"/>
          <path id="路径_63" data-name="路径 63" class="cls-20" d="M46.649,28.3H44.9V18.2l1.749,1.36Z" transform="translate(-0.987 -18.006)"/>
          <path id="路径_64" data-name="路径 64" class="cls-20" d="M38.932,28.21h1.749L36.8,19.466A2.071,2.071,0,0,0,35.046,18.3H33.88L29.8,28.21h1.749l.972-2.332h5.441ZM33.3,24.129l1.749-4.275a.678.678,0,0,1,.389.194l1.749,4.08Z" transform="translate(-15.227 -17.911)"/>
          <path id="路径_65" data-name="路径 65" class="cls-20" d="M42.506,18.2v7.189l-4.858-7H35.9V28.3h1.554V20.92L42.7,28.3h1.554V19.56Z" transform="translate(-9.474 -18.006)"/>
          <path id="路径_66" data-name="路径 66" class="cls-20" d="M53.406,18.2v7.189l-4.858-7H46.8V28.3h1.554V20.92L53.6,28.3h1.554V19.56Z" transform="translate(0.805 -18.006)"/>
          <path id="路径_67" data-name="路径 67" class="cls-20" d="M45.163,18.2v6.606a1.777,1.777,0,0,1-1.749,1.749H40.5V28.11h2.72a4.253,4.253,0,0,0,2.915-1.166,3.769,3.769,0,0,0,.583-2.137h0V19.366Z" transform="translate(-5.136 -18.006)"/>
          <path id="路径_68" data-name="路径 68" class="cls-20" d="M55.454,19.854H60.7L61.867,18.3H53.9v9.91h1.554V23.741h4.663l1.36-1.749H55.454Z" transform="translate(7.501 -17.911)"/>
          <path id="路径_69" data-name="路径 69" class="cls-20" d="M63.258,18.1A5.028,5.028,0,0,0,58.4,23.346a4.872,4.872,0,1,0,9.715,0A5.028,5.028,0,0,0,63.258,18.1Zm0,8.938c-1.749,0-3.109-1.554-3.109-3.692,0-1.943,1.36-3.692,3.109-3.692s3.109,1.554,3.109,3.692A3.243,3.243,0,0,1,63.258,27.038Z" transform="translate(11.745 -18.1)"/>
          <path id="路径_70" data-name="路径 70" class="cls-20" d="M68.758,18.1A5.028,5.028,0,0,0,63.9,23.346a4.872,4.872,0,1,0,9.715,0C73.421,20.432,71.284,18.1,68.758,18.1Zm0,8.938c-1.749,0-3.109-1.554-3.109-3.692,0-1.943,1.36-3.692,3.109-3.692s3.109,1.554,3.109,3.692S70.506,27.038,68.758,27.038Z" transform="translate(16.932 -18.1)"/>
          <path id="路径_71" data-name="路径 71" class="cls-20" d="M91.858,18.1A5.028,5.028,0,0,0,87,23.346a4.872,4.872,0,1,0,9.715,0A5.028,5.028,0,0,0,91.858,18.1Zm0,8.938c-1.749,0-3.109-1.554-3.109-3.692,0-1.943,1.36-3.692,3.109-3.692s3.109,1.554,3.109,3.692S93.606,27.038,91.858,27.038Z" transform="translate(38.716 -18.1)"/>
          <path id="路径_72" data-name="路径 72" class="cls-20" d="M77.855,20.049A4.126,4.126,0,0,0,74.163,18.3H69.5v9.91h4.663s3.3.194,4.275-2.72C78.244,25.489,79.215,22.575,77.855,20.049Zm-1.166,4.858a2.538,2.538,0,0,1-2.72,1.749H70.86V20.049h3.109s1.943-.194,2.526,1.166A5.264,5.264,0,0,1,76.689,24.906Z" transform="translate(22.213 -17.911)"/>
          <path id="路径_73" data-name="路径 73" class="cls-20" d="M85.873,18.4l-1.166,1.554H81.6s-1.943-.194-2.332.972c0,0-.777,1.166-.389,3.886a2.4,2.4,0,0,0,2.915,1.749h2.332V25.007s.194-1.166-1.166-1.166H81.015V22.287h2.137a2.539,2.539,0,0,1,2.526,2.72v3.109H81.015s-3.109,0-3.692-2.915a8.312,8.312,0,0,1,.389-5.246s.777-1.943,3.886-1.749h4.275Z" transform="translate(29.351 -18.012)"/>
          <path id="路径_74" data-name="路径 74" class="cls-20" d="M88.995,28.21h1.749L88.8,23.935a2.654,2.654,0,0,0,1.554-1.554,2.879,2.879,0,0,0,0-1.943A3.077,3.077,0,0,0,87.441,18.3H82v9.91h1.554V24.324h3.5Zm-5.246-8.355h3.692c1.749,0,1.749,1.36,1.749,1.36,0,1.36-1.554,1.36-1.554,1.36H83.749Z" transform="translate(34.001 -17.911)"/>
          <path id="路径_75" data-name="路径 75" class="cls-20" d="M94.056,19.466,92.5,18.3v6.218s-.194,3.3,2.915,4.08c0,0,3.3.777,4.858-1.36a4.883,4.883,0,0,0,.777-2.915V19.66L99.5,18.3v5.829a2.591,2.591,0,0,1-.972,2.332s-.777.777-2.72.389c0,0-1.749-.194-1.749-2.526Z" transform="translate(43.902 -17.911)"/>
          <path id="路径_76" data-name="路径 76" class="cls-20" d="M105.172,20.049a3.779,3.779,0,0,0-3.109-1.749H97.4v9.91h1.554v-3.5h2.915a3.9,3.9,0,0,0,2.915-1.166A3.28,3.28,0,0,0,105.172,20.049Zm-1.36,2.137c-.389.972-1.749.777-1.749.777H98.954V19.854h3.109a2.146,2.146,0,0,1,1.36.583A1.686,1.686,0,0,1,103.812,22.186Z" transform="translate(48.524 -17.911)"/>
        </g>
      </g>
    </g>
  </g>
</svg>
