<svg xmlns="http://www.w3.org/2000/svg" width="284.011" height="85.008" viewBox="0 0 284.011 85.008">
  <defs>
    <style>
      .cls-1 {
        fill: #2282e8;
      }

      .cls-2 {
        fill: #fff;
      }
    </style>
  </defs>
  <g id="logo" transform="translate(-818 -249)">
    <path id="多边形_1" data-name="多边形 1" class="cls-1" d="M1098.838,302.074q-6.33,10.572-12.292,21.357T1068.293,334c-8.194-.142-208.4-.142-216.59,0s-14.279-3.381-18.253-10.572-8.071-14.309-12.292-21.357-4.22-14.1,0-21.143,8.317-14.167,12.292-21.357S843.508,248.861,851.7,249s208.4.142,216.59,0,14.279,3.382,18.253,10.572,8.072,14.309,12.292,21.357S1103.058,295.027,1098.838,302.074Z" transform="translate(0.007 0.001)"/>
    <g id="logo-2" data-name="logo" transform="translate(1291.836 1623.674)">
      <g id="组_42" data-name="组 42" transform="translate(-444.915 -1341.101)">
        <g id="组_41" data-name="组 41" transform="translate(0 0)">
          <path id="路径_157" data-name="路径 157" class="cls-2" d="M19.824-1338.041l-.6,2.612a.9.9,0,0,1-.933.75H13.7l-3.62,13.714H5.994l3.618-13.714H4.7l.638-2.789a.767.767,0,0,1,.835-.573Z" transform="translate(105.844 1338.041)"/>
          <path id="路径_158" data-name="路径 158" class="cls-2" d="M-55.915-1338.041l-.6,2.591c-.114.414-.2.761-.936.761H-64.92a2.713,2.713,0,0,0-2.635,2.05c-.108.332-.247.828-.4,1.391h10.322l-.507,2.23c-.146.6-.155,1.133-1.146,1.133h-9.55l-1.8,6.921h-3.92s3.2-12.345,3.623-13.683a4.831,4.831,0,0,1,4.623-3.393Z" transform="translate(165.615 1338.041)"/>
          <path id="路径_159" data-name="路径 159" class="cls-2" d="M-125.237-1337.938c2.058,0,3.32,1.167,2.881,3.4a101.77,101.77,0,0,1-2.621,10.344,4.325,4.325,0,0,1-4.481,3.256H-136c-2.239,0-3.714-1.557-2.718-5.153.672-2.412,1.743-6.688,2.3-8.448a4.831,4.831,0,0,1,4.627-3.4Zm-1.321,5.406c.263-1.357-.5-2.064-1.756-2.064H-130.4a2.937,2.937,0,0,0-2.814,2.064c-.329,1.064-.983,3.663-1.388,5.127-.6,2.185.291,3.121,1.654,3.121h2.081a2.616,2.616,0,0,0,2.713-1.974A59.236,59.236,0,0,0-126.558-1332.532Z" transform="translate(214.235 1337.963)"/>
          <path id="路径_160" data-name="路径 160" class="cls-2" d="M-190.748-1337.841l-.558,2.417c-.134.5-.117.941-.9.941h-9.39c-1.455,0-1.688,1.093-1.188,1.436,2.138,1.3,6.6,3.886,6.6,3.886l1.142.679a2.639,2.639,0,0,1,1.46,2.542,6.836,6.836,0,0,1-1.386,3.5c-1.07,1.515-2.88,1.6-4.425,1.6H-209.66l.625-2.714c.088-.395.294-.648.919-.648h8.928c1.672,0,1.871-1.061,1.369-1.411-.871-.535-7.555-4.413-7.555-4.413-1.162-.75-1.7-1.231-1.563-2.519a7.158,7.158,0,0,1,1.278-3.274,5.694,5.694,0,0,1,4.634-2.029Z" transform="translate(267.5 1337.89)"/>
          <path id="路径_161" data-name="路径 161" class="cls-2" d="M-229.2-1337.772l-4.485,17.01h-4.093l4.486-17.01Z" transform="translate(288.703 1337.838)"/>
          <path id="路径_162" data-name="路径 162" class="cls-2" d="M-294.053-1337.938a3.008,3.008,0,0,1,3.235,3.653,6.783,6.783,0,0,1-.851,3.068,8.588,8.588,0,0,1-1.912,2.289,2.235,2.235,0,0,1,1,1.833,10.93,10.93,0,0,1-1.917,4.806,4.384,4.384,0,0,1-3.421,1.35h-10.649l4.482-17Zm-1.051,5.133c.348-1.176-.358-1.765-1.09-1.765h-5.035l-.934,3.528h5.075C-296.04-1331.043-295.432-1331.7-295.1-1332.806Zm-1.617,6.651c.3-1.1-.244-1.557-1.091-1.557h-5.226l-.9,3.424h5.11C-297.584-1324.287-297.017-1325.1-296.72-1326.154Z" transform="translate(342.09 1337.963)"/>
          <path id="路径_163" data-name="路径 163" class="cls-2" d="M-359.753-1337.669l-4.489,17.01h-3.7l-4.155-10.183-2.539,9.586a.8.8,0,0,1-.747.6c-.557.014-3.164,0-3.164,0l4.49-17.01h3.662l4.27,10.015,2.4-9.317c.149-.487.277-.7.862-.7Z" transform="translate(394.867 1337.76)"/>
          <path id="路径_164" data-name="路径 164" class="cls-2" d="M-430.694-1337.938c2.061,0,3.064,1.481,2.624,3.715-.109.574-.229,1.141-.351,1.715h-3.768a.072.072,0,0,0,.006-.024c.266-1.357-.5-2.064-1.753-2.064h-2.351a2.925,2.925,0,0,0-2.8,2.064c-.338,1.064-.987,3.663-1.394,5.127-.612,2.185.29,3.121,1.651,3.121h2.337a2.631,2.631,0,0,0,2.722-1.974c.011-.033.018-.073.03-.107h3.8c-.224.759-.442,1.488-.656,2.17a4.333,4.333,0,0,1-4.483,3.256h-6.788c-2.249,0-3.723-1.557-2.72-5.153.67-2.412,1.74-6.688,2.293-8.448a4.831,4.831,0,0,1,4.622-3.4Z" transform="translate(444.915 1337.963)"/>
        </g>
      </g>
      <path id="路径_165" data-name="路径 165" class="cls-2" d="M69.12-1341.342a4.777,4.777,0,0,0-4.335,3.4l-3.218,11.9-.921,3.4h37.7a4.782,4.782,0,0,0,4.343-3.4l3.215-11.9.918-3.4Zm6.387,5.427c.487-.431,1.855-1.751,1.855-1.751a.384.384,0,0,1,.484.062.3.3,0,0,1-.015.437s-1.36,1.279-1.735,1.675a1.581,1.581,0,0,0-.538.9.689.689,0,0,0,.134.46l1.3,1.642c.057.052.113.3-.156.532-.239.2-.466.141-.554-.006a16.135,16.135,0,0,0-1.255-1.71C74.5-1334.334,74.655-1335.154,75.507-1335.915Zm2.938,1.783,1.3,1.642c.06.052.112.3-.149.532-.243.2-.475.141-.559-.006a15.57,15.57,0,0,0-1.252-1.71c-.541-.659-.391-1.48.467-2.24.483-.431,1.867-1.751,1.867-1.751a.375.375,0,0,1,.477.062.309.309,0,0,1-.015.437s-1.363,1.279-1.736,1.675a1.537,1.537,0,0,0-.535.9A.71.71,0,0,0,78.445-1334.132Zm-5.858,7.979s.147.519-.174.648a.453.453,0,0,1-.607-.344,2.889,2.889,0,0,1,.149-2.357c.522-1.2.716-1.468.542-1.858s-1.029-.383-1.408-.351l-.867,4.876a.5.5,0,0,1-.469.4.326.326,0,0,1-.332-.4l.866-4.876c-.369-.032-1.191-.053-1.521.351s-.224.663-.129,1.858a3.3,3.3,0,0,1-.689,2.357c-.284.412-.6.406-.729.344-.276-.129.055-.648.055-.648a3.106,3.106,0,0,0,.492-2.654,1.7,1.7,0,0,1,.74-2,3.763,3.763,0,0,1,1.92-.4l.168-.948H69.61a1.109,1.109,0,0,1-1.166-1.328,1.691,1.691,0,0,1,1.634-1.321h.986l.183-1.014h-.986a1.117,1.117,0,0,1-1.172-1.322,1.713,1.713,0,0,1,1.643-1.327h.986l.106-.587a.492.492,0,0,1,.465-.4.326.326,0,0,1,.333.4l-.106.587h.988a1.112,1.112,0,0,1,1.17,1.327,1.7,1.7,0,0,1-1.644,1.322h-.988l-.179,1.014h.988a1.108,1.108,0,0,1,1.173,1.321,1.7,1.7,0,0,1-1.644,1.328H71.4l-.168.948a3.1,3.1,0,0,1,1.791.4c.551.536.527,1.117.019,2A3.106,3.106,0,0,0,72.587-1326.153Zm9.374-4.411a.489.489,0,0,1-.462.392H78.347a.386.386,0,0,1-.006.1l-.7,3.94h3.14a.319.319,0,0,1,.32.393.486.486,0,0,1-.461.386H73.593a.313.313,0,0,1-.316-.386.481.481,0,0,1,.457-.393h2.995l.7-3.94a.443.443,0,0,1,.029-.1H74.448a.318.318,0,0,1-.32-.392.483.483,0,0,1,.457-.384h7.052A.315.315,0,0,1,81.961-1330.565Zm1.123-6.6s-1.359,1.279-1.735,1.675a1.65,1.65,0,0,0-.536.9.736.736,0,0,0,.14.46l1.3,1.642c.055.052.106.3-.155.532-.236.2-.47.141-.553-.006a16.927,16.927,0,0,0-1.255-1.71c-.54-.659-.385-1.48.469-2.24.484-.431,1.858-1.751,1.858-1.751a.373.373,0,0,1,.476.062A.3.3,0,0,1,83.084-1337.167Zm.379-1.831a.494.494,0,0,1-.462.384H75.955a.318.318,0,0,1-.327-.384.478.478,0,0,1,.465-.393h7.046A.318.318,0,0,1,83.463-1339Zm8.358,9.2c.193,0,.316.185.271.418a.494.494,0,0,1-.427.416h-2.7l-.177.936h2.692c.2,0,.32.187.27.418a.476.476,0,0,1-.421.417h-2.7l-.556,2.947a.554.554,0,0,1-.515.43.343.343,0,0,1-.346-.43l.557-2.947h-2.75c-.193,0-.32-.186-.274-.417a.49.49,0,0,1,.428-.418H87.93l.177-.936H85.359c-.2,0-.321-.186-.274-.416a.484.484,0,0,1,.432-.418h2.747l.183-.97a4.067,4.067,0,0,1-2.421-.475c-.737-.665-.366-1.721.409-2.969.991-1.623,1.009-2.275.522-4.246,0,0-.194-.543.21-.705.342-.132.46.04.567.283a4.7,4.7,0,0,1-.012,3.929c-.711,1.736-1.3,2.122-1.108,2.694.218.667,1.655.5,2.029.448l1.313-6.945a.543.543,0,0,1,.512-.425.341.341,0,0,1,.346.425L89.5-1331.8a2.215,2.215,0,0,0,1.8-.608c.406-.567.308-.958.265-2.7a6.341,6.341,0,0,1,.967-3.422c.316-.629.746-.837,1.049-.629s-.084.992-.084.992a5.143,5.143,0,0,0-.94,3.925,2.877,2.877,0,0,1-.993,2.912,3.863,3.863,0,0,1-2.263.57l-.182.966Zm9.132-2.795-.074.356a2.729,2.729,0,0,1-2.575,2.151H94.936a1.408,1.408,0,0,0-1.261,1.177.9.9,0,0,0,.814,1.18h1.565l.006-.009a2.791,2.791,0,0,1,2.467,1.258c.884,1.4.839,1.835.839,1.835a.4.4,0,0,1-.273.445c-.338.115-.462-.31-.462-.31a4.371,4.371,0,0,0-1.019-1.691,1.925,1.925,0,0,0-1.539-.757H94.307a1.574,1.574,0,0,1-1.479-2.037,2.482,2.482,0,0,1,2.247-2.041h1.271l.524-2.783H94.632v-.006h-.426a.357.357,0,0,1-.336-.457.558.558,0,0,1,.508-.458h.431v0h4.372A1.743,1.743,0,0,1,100.952-1332.59Zm.9-4.795a2.313,2.313,0,0,1-2.206,1.771h-3.67a1.465,1.465,0,0,1-1.534-1.771,2.3,2.3,0,0,1,2.2-1.776h3.676A1.469,1.469,0,0,1,101.856-1337.385Z" transform="translate(-381.264 -0.57)"/>
      <path id="路径_166" data-name="路径 166" class="cls-2" d="M102.194-1325.718a.39.39,0,0,0-.4-.477H98.757a.584.584,0,0,0-.57.477.39.39,0,0,0,.4.482h3.035A.606.606,0,0,0,102.194-1325.718Z" transform="translate(-409.568 -11.993)"/>
      <path id="路径_167" data-name="路径 167" class="cls-2" d="M99.548-1310.84a.392.392,0,0,0-.4-.477h-3.04a.6.6,0,0,0-.569.477.4.4,0,0,0,.4.483h3.044A.6.6,0,0,0,99.548-1310.84Z" transform="translate(-407.574 -23.214)"/>
      <path id="路径_168" data-name="路径 168" class="cls-2" d="M211.326-1310.725h-.956l-.526,2.783h1.17a1.652,1.652,0,0,0,1.331-1.275l.042-.215A1.048,1.048,0,0,0,211.326-1310.725Z" transform="translate(-493.78 -23.659)"/>
      <path id="路径_169" data-name="路径 169" class="cls-2" d="M206.34-1329.18h-2.7a1.539,1.539,0,0,0-1.555.968c-.1.53.431.968,1.192.968h2.7a1.533,1.533,0,0,0,1.551-.968C207.626-1328.746,207.1-1329.18,206.34-1329.18Z" transform="translate(-487.92 -9.742)"/>
      <g id="圆标_R" data-name="圆标 R" transform="translate(-271.762 -1341.699)">
        <g id="组_43" data-name="组 43" transform="translate(1.759 1.349)">
          <path id="路径_170" data-name="路径 170" class="cls-2" d="M266.514-1331.869v-3.119h1.4a1.929,1.929,0,0,1,.64.083.72.72,0,0,1,.346.3.889.889,0,0,1,.129.471.8.8,0,0,1-.216.56,1.113,1.113,0,0,1-.665.288,1.059,1.059,0,0,1,.246.156,2.326,2.326,0,0,1,.351.415l.543.848h-.523l-.413-.65c-.127-.186-.226-.328-.3-.429a1.007,1.007,0,0,0-.213-.207.614.614,0,0,0-.192-.086,1.285,1.285,0,0,0-.232-.015h-.3v1.387Zm.6-1.742h.713a1.414,1.414,0,0,0,.445-.058.49.49,0,0,0,.25-.186.52.52,0,0,0,.081-.282.44.44,0,0,0-.166-.364.744.744,0,0,0-.509-.144h-.814Z" transform="translate(-266.514 1334.988)"/>
        </g>
        <path id="路径_171" data-name="路径 171" class="cls-2" d="M262.343-1340.474a2.973,2.973,0,0,0-2.983,2.96,2.972,2.972,0,0,0,2.983,2.96,2.973,2.973,0,0,0,2.985-2.96A2.974,2.974,0,0,0,262.343-1340.474Zm0,5.442a2.493,2.493,0,0,1-2.506-2.481,2.493,2.493,0,0,1,2.506-2.48,2.493,2.493,0,0,1,2.506,2.48A2.493,2.493,0,0,1,262.343-1335.032Z" transform="translate(-259.36 1340.474)"/>
      </g>
      <g id="组_44" data-name="组 44" transform="translate(-262.641 -1342.098)">
        <path id="路径_172" data-name="路径 172" class="cls-2" d="M296.538-1335.7l2.9-5.083h3.066l-3.227,5.729h.726l.968-1.533h3.308l-4.2,7.342h3.631v2.42h-7.262v-1.856l2.34-3.953h-2.259Zm-.081,13.313v-2.5h7.262v2.5Zm7.826-5.729v-2.42h10.489v2.42H310.98v3.308h3.631v2.421H304.2v-2.421h3.792v-3.308Zm2.5-5.97,3.631-4.115h-6.051v-2.582h10.247v2.017l-2.985,3.631,1.13,1.049a1.071,1.071,0,0,0,.888.4h1.129v2.259h-2.663a1.4,1.4,0,0,1-1.291-.646l-.968-.968-.888.887a2.067,2.067,0,0,1-1.775.726h-2.9v-2.259h1.452A1.019,1.019,0,0,0,306.784-1334.088Z" transform="translate(-296.457 1341.108)"/>
        <path id="路径_173" data-name="路径 173" class="cls-2" d="M406.339-1340.565v-1.533h2.985v1.614h3.147v2.1h-3.147v2.9h3.066v2.178h-3.066v2.744h3.147v2.178h-3.147v1.775q-.081,2.5-2.259,2.582h-3.873v-2.017h2.743a.428.428,0,0,0,.484-.484v-1.856h-3.227v-2.178h3.227v-2.744h-3.308v-2.178h3.227v-2.9h-3.147v-2.179Zm6.535,16.54V-1342.1h8.23v6.213a2.078,2.078,0,0,1-.807,1.936,2.3,2.3,0,0,1,.807,2.017v5.406a1.93,1.93,0,0,1-1.936,1.936H415.7v.565Zm5.406-11.215v-4.357h-2.662v5.244h1.614Q418.279-1334.353,418.28-1335.24Zm0,7.988v-4.2a.828.828,0,0,0-.807-.807h-1.856v5.325h2.34C418.172-1326.875,418.28-1326.983,418.28-1327.252Z" transform="translate(-376.89 1342.098)"/>
      </g>
    </g>
  </g>
</svg>
