<svg xmlns="http://www.w3.org/2000/svg" width="20" height="20" viewBox="0 0 20 20">
  <defs>
    <style>
      .cls-1 {
        fill: rgba(158,27,27,0);
      }

      .cls-2 {
        fill: #13548f;
      }
    </style>
  </defs>
  <g id="authorization_icon" transform="translate(-64.5 -67.599)">
    <rect id="矩形_105" data-name="矩形 105" class="cls-1" width="20" height="20" transform="translate(64.5 67.599)"/>
    <path id="路径_155" data-name="路径 155" class="cls-2" d="M71.8,3.426h7.323c0,.81,0,1.621,0,2.431a2.4,2.4,0,0,0,1.255,2.136,2.057,2.057,0,0,0,.87.141c.866,0,1.733,0,2.6,0q0,2.333,0,4.667a5.563,5.563,0,0,0-2.523.291,5.351,5.351,0,0,0-2.617,2.1c-1.835,0-3.669,0-5.5,0a1.174,1.174,0,0,0-.937.49,1.167,1.167,0,0,0,.938,1.861q2.337,0,4.673,0A5.382,5.382,0,0,0,78.8,21.11H72.157a1.861,1.861,0,0,1-.853-.225A3.293,3.293,0,0,1,70,19.7a1.9,1.9,0,0,1-.315-1.049q0-6.333,0-12.666a2.6,2.6,0,0,1,.834-1.892A2.18,2.18,0,0,1,71.8,3.426M73.03,10.5a1.166,1.166,0,0,0-.735,1.879,1.175,1.175,0,0,0,.932.459q3.543,0,7.087,0a1.191,1.191,0,0,0,1.154-1.007,1.175,1.175,0,0,0-1.135-1.344q-3.5,0-7,0a1.9,1.9,0,0,0-.306.016Zm7.283-7.078H80.5a2.958,2.958,0,0,1,1.241.763A12.573,12.573,0,0,1,83.609,6a1.269,1.269,0,0,1,.241.924q-1.391,0-2.782,0a.487.487,0,0,1-.39-.205,1.656,1.656,0,0,1-.366-.977c0-.773,0-1.547,0-2.32Zm2.811,12.52a1.616,1.616,0,1,0,1.616,1.616A1.618,1.618,0,0,0,83.123,15.946Zm.934,1.152c-.02.061-.046.134-.076.218s-.063.172-.1.264-.073.185-.111.282-.077.188-.114.276a.487.487,0,0,1-.226.243.639.639,0,0,1-.649-.025.578.578,0,0,1-.231-.289q-.035-.091-.081-.218t-.1-.259q-.05-.132-.1-.259T82.2,17.1a.172.172,0,0,1,.018-.177.345.345,0,0,1,.147-.119.36.36,0,0,1,.183-.028.16.16,0,0,1,.135.091q.025.056.061.147t.081.2l.094.228a2.158,2.158,0,0,0,.1.218.174.174,0,0,0,.145.109q.094.008.144-.124t.084-.216c.022-.063.041-.121.056-.175s.031-.106.046-.155.031-.1.048-.16a.23.23,0,0,1,.142-.157.29.29,0,0,1,.193.005.317.317,0,0,1,.155.119A.205.205,0,0,1,84.057,17.1Zm1.451,2.158a2.927,2.927,0,1,0-4.766,0l-1.274,1.946,1.578-.12.548,1.123.941-1.779a2.941,2.941,0,0,0,1.18,0l.942,1.78.548-1.123,1.578.12Zm-4.384-1.694a2,2,0,1,1,2,2A2,2,0,0,1,81.124,17.562Z" transform="translate(-4.188 65.173)"/>
  </g>
</svg>
