<svg xmlns="http://www.w3.org/2000/svg" width="20" height="20" viewBox="0 0 20 20">
  <defs>
    <style>
      .cls-1 {
        fill: rgba(158,27,27,0);
      }

      .cls-2 {
        fill: #13548f;
      }
    </style>
  </defs>
  <g id="bumen_icon" transform="translate(-64.5 -67.599)">
    <rect id="矩形_105" data-name="矩形 105" class="cls-1" width="20" height="20" transform="translate(64.5 67.599)"/>
    <path id="路径_154" data-name="路径 154" class="cls-2" d="M17.915.9H3.384a.684.684,0,0,0-.684.675.686.686,0,0,0,.684.675H18v14.4A1.42,1.42,0,0,1,16.532,18H2.818A1.419,1.419,0,0,1,1.35,16.646v-.963h.5a.814.814,0,0,0,.81-.819V13.637a.815.815,0,0,0-.81-.819h-.5V10.363h.5a.814.814,0,0,0,.81-.818V8.318a.815.815,0,0,0-.81-.819h-.5V5.046h.5a.814.814,0,0,0,.81-.819V3a.814.814,0,0,0-.81-.819h-.5V1.355A1.419,1.419,0,0,1,2.818,0H16.532a1.472,1.472,0,0,1,1.383.9ZM.556,4.633A.586.586,0,0,1,0,4.02V3.2a.587.587,0,0,1,.556-.614H1.667a.586.586,0,0,1,.556.613v.818a.587.587,0,0,1-.556.613H.556Zm0,5.313A.586.586,0,0,1,0,9.333V8.516A.586.586,0,0,1,.556,7.9H1.667a.586.586,0,0,1,.556.613v.817a.586.586,0,0,1-.556.613H.556Zm1.112,5.315H.556A.586.586,0,0,1,0,14.648V13.83a.587.587,0,0,1,.556-.613H1.667a.586.586,0,0,1,.556.613v.818A.586.586,0,0,1,1.667,15.261Zm11.948-3.447a7.923,7.923,0,0,0-2.075-.564s-1,1.016-1.423,1.016S8.694,11.25,8.694,11.25a7.954,7.954,0,0,0-2.074.563c-.534.341-.771,2.138-.771,2.138H14.4s-.155-1.737-.786-2.138Zm-3.49-1.464A2.475,2.475,0,1,0,7.65,7.875,2.475,2.475,0,0,0,10.125,10.35Z" transform="translate(65.5 68.599)"/>
  </g>
</svg>
