<svg xmlns="http://www.w3.org/2000/svg" width="20" height="20" viewBox="0 0 20 20">
  <defs>
    <style>
      .cls-1 {
        fill: rgba(158,27,27,0);
      }

      .cls-2 {
        fill: #13548f;
      }
    </style>
  </defs>
  <g id="conpany_icon" transform="translate(-64.5 -67.599)">
    <rect id="矩形_105" data-name="矩形 105" class="cls-1" width="20" height="20" transform="translate(64.5 67.599)"/>
    <path id="路径_151" data-name="路径 151" class="cls-2" d="M403.415,744.724H385.561a.251.251,0,0,1-.25-.25v-.951a.251.251,0,0,1,.25-.25h17.853a.251.251,0,0,1,.25.25v.951a.251.251,0,0,1-.25.25Z" transform="translate(-319.812 -658.848)"/>
    <path id="路径_152" data-name="路径 152" class="cls-2" d="M508.225,131.763h-4.913a1.547,1.547,0,0,0-1.547,1.547V146.5a1.547,1.547,0,0,0,1.547,1.547h4.913a1.547,1.547,0,0,0,1.547-1.547V133.31A1.547,1.547,0,0,0,508.225,131.763Zm-.15,8.808a.471.471,0,0,1-.471.471h-3.67a.471.471,0,1,1,0-.943h3.67A.471.471,0,0,1,508.075,140.571Zm0-2.294a.471.471,0,0,1-.471.471h-3.67a.471.471,0,1,1,0-.942h3.67A.468.468,0,0,1,508.075,138.277Zm0-2.3a.471.471,0,0,1-.471.471h-3.67a.471.471,0,1,1,0-.942h3.67A.471.471,0,0,1,508.075,135.979Z" transform="translate(-433.442 -62.164)"/>
    <path id="路径_153" data-name="路径 153" class="cls-2" d="M768.413,356.413H765.2a1.454,1.454,0,0,0-1.455,1.455V365.8a1.454,1.454,0,0,0,1.455,1.455h3.215a1.454,1.454,0,0,0,1.455-1.455v-7.932A1.459,1.459,0,0,0,768.413,356.413Zm-.083,5.6h-2.577a.354.354,0,0,1,0-.709h2.577a.354.354,0,1,1,0,.709Zm.354-2.673a.354.354,0,0,1-.354.354h-2.577a.354.354,0,0,1,0-.709h2.577A.354.354,0,0,1,768.684,359.341Z" transform="translate(-689.068 -281.367)"/>
  </g>
</svg>
