<svg xmlns="http://www.w3.org/2000/svg" width="20" height="20" viewBox="0 0 20 20">
  <defs>
    <style>
      .cls-1 {
        fill: rgba(158,27,27,0);
      }

      .cls-2 {
        fill: #13548f;
      }
    </style>
  </defs>
  <g id="juese_icon" transform="translate(-64.5 -67.599)">
    <rect id="矩形_105" data-name="矩形 105" class="cls-1" width="20" height="20" transform="translate(64.5 67.599)"/>
    <path id="路径_149" data-name="路径 149" class="cls-2" d="M20.1,9.716a5.581,5.581,0,0,1-6.233.007,7.337,7.337,0,0,0-4.088,6.6c0,3.078,14.42,3.035,14.42,0a7.336,7.336,0,0,0-4.1-6.611ZM12.134,4.926a4.848,4.848,0,1,1,9.694,0,4.848,4.848,0,1,1-9.694,0ZM8.928,16.582a1.07,1.07,0,0,0,.051.326c-1.821-.3-3.18-.879-3.18-1.757A6.35,6.35,0,0,1,9.336,9.434a4.819,4.819,0,0,0,2.537.819,8.226,8.226,0,0,0-2.946,6.329Zm2.4-11.656A5.777,5.777,0,0,1,12.39,1.576c-.117-.01-.233-.015-.351-.015a4.022,4.022,0,0,0-3.99,4.054A4.021,4.021,0,0,0,12.038,9.67a3.9,3.9,0,0,0,1.408-.261,5.768,5.768,0,0,1-2.118-4.482Zm0,0" transform="translate(59.702 68.412)"/>
  </g>
</svg>
