<svg xmlns="http://www.w3.org/2000/svg" width="184" height="40" viewBox="0 0 184 40">
  <defs>
    <style>
      .cls-1 {
        fill: rgba(119,189,255,0);
      }

      .cls-2 {
        fill: #fff;
        fill-rule: evenodd;
      }

      .cls-3 {
        fill: none;
      }
    </style>
  </defs>
  <g id="logo" transform="translate(-36 -12)">
    <rect id="矩形_2_拷贝" data-name="矩形 2 拷贝" class="cls-1" width="184" height="40" transform="translate(36 12)"/>
    <g id="组_3" data-name="组 3" transform="translate(38.4 11.512)">
      <g id="组_1" data-name="组 1" transform="translate(0.6 0.488)">
        <path id="路径_1" data-name="路径 1" class="cls-2" d="M31.868,18.857l-.174-.869A19.855,19.855,0,0,0,42.239,4.411,19.733,19.733,0,0,0,25.224,6.69c-.212-.193-.425-.406-.657-.6A20.83,20.83,0,0,1,43.224,3.812L43.8,1.862A22.642,22.642,0,0,0,22.926,4.8,22.759,22.759,0,0,0,1.933,1.823l.579,1.951A20.716,20.716,0,0,1,21.227,6.091c-.212.193-.444.386-.657.579A19.537,19.537,0,0,0,3.536,4.314,19.951,19.951,0,0,0,14.061,17.969c-.058.29-.135.579-.174.85A20.826,20.826,0,0,1,2.589,3.831L.6,4.314A22.664,22.664,0,0,0,13.578,20.924a22.46,22.46,0,0,0-.077,3.418H8.712v5.079h5.639a1.249,1.249,0,0,0,.077.251H8.712v2.762l6.74-.019a22.393,22.393,0,0,0,6.064,8.073l1.391-1.468,1.352,1.429a22.224,22.224,0,0,0,6.933-10.41l-.734-.927,2.685,3.341H37.3l-4.114-5.079L37.6,24.419H33.181l-1,.637a22.1,22.1,0,0,0-.019-4.075A22.756,22.756,0,0,0,45.194,4.314L43.2,3.851A20.707,20.707,0,0,1,31.868,18.857ZM41.274,4.932a19.062,19.062,0,0,1-9.792,12.245,22.368,22.368,0,0,0-2.221-5.369,22.151,22.151,0,0,0-3.438-4.519A18.981,18.981,0,0,1,41.274,4.932ZM29.357,22.005c.29-.077.56-.174.83-.27a20.436,20.436,0,0,1-.251,4.732l-1.873,1.2.908-.579A19.484,19.484,0,0,0,29.357,22.005Zm-.367-2.916c.27-.1.541-.174.811-.29.058.29.116.56.155.85l-.811.29C29.087,19.649,29.048,19.379,28.99,19.089Zm-1.506-6.277a20.738,20.738,0,0,1,2.124,5.2l-.811.29a19.607,19.607,0,0,0-2.047-5.06,19.028,19.028,0,0,0-3.264-4.21c.212-.193.425-.367.657-.56A20.635,20.635,0,0,1,27.484,12.812Zm-4.577,7.242A19.887,19.887,0,0,0,28.2,19.34c.058.29.116.56.155.85a20.365,20.365,0,0,1-5.446.734,19.8,19.8,0,0,1-5.485-.753c.039-.29.1-.56.155-.85A19.314,19.314,0,0,0,22.907,20.055ZM17.75,18.529a19.044,19.044,0,0,1,5.157-8.923,19.3,19.3,0,0,1,3.148,4.056,18.268,18.268,0,0,1,1.97,4.886,18.609,18.609,0,0,1-5.118.7A18.894,18.894,0,0,1,17.75,18.529ZM22.907,7.346c.212.193.444.367.657.56-.212.174-.444.367-.657.56-.212-.193-.425-.386-.657-.56C22.463,7.713,22.675,7.54,22.907,7.346ZM21.651,8.486c.212.174.444.367.657.56a20.015,20.015,0,0,0-3.3,4.249,19.176,19.176,0,0,0-2.028,5l-.811-.29a21.028,21.028,0,0,1,2.105-5.137A20.076,20.076,0,0,1,21.651,8.486ZM16.4,24.342h-.85a17.037,17.037,0,0,1,.019-2.627c.27.1.56.193.83.27A15.991,15.991,0,0,0,16.4,24.342Zm-.6-4.693c.058-.29.1-.56.155-.85l.811.29c-.058.29-.116.56-.155.85ZM4.521,4.894A19.021,19.021,0,0,1,20.01,7.289a22.542,22.542,0,0,0-5.717,9.888A19.082,19.082,0,0,1,4.521,4.894ZM9.156,31.971V30.1h9.657V29.055H9.156V24.786h12.65v1.391H12.149v1.448h9.657v4.345H9.156Zm7.32-2.569h.888c.019.077.058.174.077.251h-.908A.6.6,0,0,0,16.475,29.4Zm1.758,0h.174v.251H18.33C18.291,29.576,18.272,29.479,18.233,29.4Zm-4.4-2.221H12.574l-.039-.618h1.178A3.478,3.478,0,0,1,13.83,27.181Zm9.019,11.762A20.56,20.56,0,0,1,17.692,32.4h.985A22.875,22.875,0,0,0,22.81,37.8a19.118,19.118,0,0,0,4.268-5.446l-.927.019a18.769,18.769,0,0,1-3.3,4.326A19,19,0,0,1,19.566,32.4h-.773l3.4-.019.039-5.157-8.112-.039h1.8l-.116-.637h.85l.116.637h.85c-.039-.212-.1-.425-.135-.637h4.712l.039-2.221H17.209A19.534,19.534,0,0,1,17.19,22.2a22.373,22.373,0,0,0,5.7.734,22.831,22.831,0,0,0,5.659-.715,19.412,19.412,0,0,1-.56,5.485l-.56.348V24.361l-3.592.019v8l3.592-.039v-.7c.135-.27.251-.541.367-.83l1.2-.792A20.817,20.817,0,0,1,22.849,38.943Zm10.41-14.157h3.09l-3.785,2.453,3.824,4.77H33.3l-2.781-3.438-3.534,2.3v1.1H24.239V24.786H27v4.056Zm145.525,8.073c-1.545-1.236-5,.251-6.47-1.024C170.189,30,173.685,29,173.84,27.625c.232-2.2-2.376-.483-2.8-1.893-.386-1.313,1.1-1.294,1.835-1.526,1.352-.444,2.549-.869,3.283-2.086,1.313-2.182-1.159-1.8-2.318-2.414-.966-.5-.7-2.24-.676-3.65.039-2.124,0-4.4-.135-6.412a18.608,18.608,0,0,0-.483-3.322,9.09,9.09,0,0,1-.715-1.835,7.538,7.538,0,0,0-5.7,1.371,9.056,9.056,0,0,0-1.275,1.2c-.869,1-2.24,2.009-2.569,3.689,2.356,0,2.453-2.453,4.365-3.283,1.738-.753,2.124.27,2.414,1.873.116.676.367,2.24-.29,2.7-.425.29-.676-.019-1.12-.155a9.256,9.256,0,0,0-1.371-.328c-.232-.019-.811-.155-1.024-.019-.618.367-.039.386-.425.985a3.413,3.413,0,0,0-.232.328c-.348.5-.773.637-.946,1.082-.348.85.039,2.376-.174,3.245-.5,2.105-2.491,4.191-3.283,6.006-.29.676-1.178,2.549-.328,2.974.464.212,1.8-.541,2.2-.715,1.2-.521,5.891-1.912,3.322.715-.734.753-3.631,2.067-2.878,3.206.792,1.2,5.408.56,4.133,2.646-1.371,2.24-5.659.058-7.822.966a2.26,2.26,0,0,0-1.371,1.68c.077,1.719,1.545.406,2.318.406-.309.657-.773,1.024-.888,1.68,3.418,0,5.659-.618,8.5-.811,3.283-.212,7.59,1.024,10.062-.464C178.455,34.906,179.807,33.69,178.784,32.859ZM167.737,15.091c1.622-.058,1.275.019.869,1.526-.27.985-.367,1.622-1.178.792C166.346,16.308,167.737,15.825,167.737,15.091Zm1.526,8.015a1.444,1.444,0,0,1,1.043-.483c-.6-2.376-5.272.406-5.369-2.723-.483,0-.579.193-.637.637-.406,0-.27-.618-.232-.811a37.8,37.8,0,0,1,4.964-.483c0,1.758,1.082.637,2.009,1.371,1.159.888.232,1.448,2.086,1.448a3.128,3.128,0,0,1-1.8,1.931C170.44,24.342,168.239,24.419,169.262,23.106ZM64.527,19.9c-4.23.425-5.582,3.515-6.257,7.223-.406,2.221-1.448,4.442-1.758,6.74-.251,1.854-.637,5.736,2.318,4.693a8.842,8.842,0,0,0,2.646-1.642,5.529,5.529,0,0,0,2.086-2.878c.29-1.024.657-1.989.966-3.129a31.516,31.516,0,0,0,.908-3.071,13.718,13.718,0,0,0-.019-4.867C65.2,21.947,64.565,21,64.527,19.9Zm80.691,6.721a2.051,2.051,0,0,0-1.275-.155,3.027,3.027,0,0,0-.888.328c-1.68.811-3.38,4.326-5.446,4.326,0-2.781,1-4,2.723-5.446,1.255-1.062,2.665-2.163,3.09-3.534.444-1.429.328-2.221-1.275-2.24-1.294-.019-3.9,1.487-3.727-.637.155-2.028,2.337-4.481,3.534-6.257,1.545-2.318,3.225-4.77,3.843-7.687a10.8,10.8,0,0,1-4.172-1.448c-.734-.464-1.893-1.429-2.549-1.429a4.911,4.911,0,0,1-1.449,1.931c-1.912,1-1.159-1.217-2.24-1.6-1.2-.425-1.12,1.294-1.371,1.758a2.371,2.371,0,0,1-.753.811c-.753.618-2.279.715-3.245.966-.676.174-1.255.155-1.68.715-.7.927-.328,3.4-.116,4.577a12.666,12.666,0,0,0,1,2.723c.386.869.946,1.951,1.526,2.974a4.688,4.688,0,0,0,.56.966c.734.579,1.371.019,2.009-.232.7-.29,2.646-1.468,3.361-.637.676.773-1.642,1.622-2.24,1.835-2.086.811-4.809,1.758-5.6,4.172a8.081,8.081,0,0,0,4.326-1.835c.792-.579,1.738-2.086,2.723-2.086-.56,1.159.348,1.062.715,1.758.232.406.464.908.058,1.294-.077.077-.29.135-.29.212-.483-.521-.154-1.429-.869-1.777-1-.483-.985,1.255-1.371,2.182a4.97,4.97,0,0,1-.7,1.2c-1.2,1.41-3.245,1.912-2.433,4.345-.116,0-.077.077-.154.155-.058-.483-.309-.676-.715-.56,0,1.815-.1,1.68-1.12,2.414-.406.29-1.024.7-.715,1.275,1.062,2.047,3.592-.734,4.094-1.6a21.186,21.186,0,0,1,1.68-3.051c.676-.792,1.719-1.893,1.68.367-.039,2.124-1.294,5.079-.464,6.933a1.588,1.588,0,0,0,2.569.811c1.738-1.236,2.916-3.689,4.828-5.215.985-.792,3.09-1.97,2.472.406-.29,1.12-1.178,1.854-1.275,3.283,2.144,0,2.646-2.182,2.742-4.365.019-.56.212-2.163-.1-2.53C146.2,26.7,145.584,26.737,145.217,26.621ZM140.331,6.593c1.313,0,3.727-.367,2.569,1.448a1.731,1.731,0,0,1-.676.56C140.563,9.394,140.041,8.042,140.331,6.593ZM134.209,9.78c-.27.425-.386.367-1.043.348-1.1-.039-.811.309-1-.966a12.892,12.892,0,0,1,0-1.931c.792.155,1.371-.019,1.893.946A3,3,0,0,1,134.209,9.78ZM139.617,21.5c.946-.135,1.8-.888,2.723-.888-.1,2.646-2.2,3.322-4,4.249C137.241,23.415,139.617,22.2,139.617,21.5ZM136.256,9.316c-1.12-.348.251-1.661.406-2.24.715-.077,1.082-.734,1.835-.232a.936.936,0,0,1,.444,1.2C138.825,8.235,136.159,9.278,136.256,9.316ZM70.765,17.331a5.458,5.458,0,0,0,.077-3.206,7.717,7.717,0,0,0-1.159-2.414c-.155-.212-1.719-1.661-1.719-1.758-1.12-.155-1.8-.637-2.646.155a4.294,4.294,0,0,0-1.2,1.931c-.444,1.506-.676,5.446.966,6.412.657.386,4.326.135,4.886-.155A1.627,1.627,0,0,0,70.765,17.331ZM86.389,23.3c-1.468-.328-2.337-.116-1.758-2.124.174-.618.521-1.217.715-1.758a4.362,4.362,0,0,0,.328-2.376c-.29-1.1-.058-.444-.657-.83-.27-.174-.966.058-.966-.328-2.974,0-5.968-.328-8.169,1.12-.888.579-2.646,2.086-2.395,3.534,2.376-.637,3.766-2.858,5.775-3.689.869-.348,3.225-.792,4,0,.579.579-.425,1.352-1,2.086a14.134,14.134,0,0,1-8.614,5.446,16.638,16.638,0,0,0-2.569.406,3.7,3.7,0,0,0-.908,1.7c-.212.869-.193.908.27,1.429,1.255,1.391,5.06,1.352,7.2,1.2a30.827,30.827,0,0,0,6.972-1.526c.792-.232,1.6-.483,2.318-.715,1.255-.425,3.148-.753,1.371-2.685A3.567,3.567,0,0,0,86.389,23.3Zm30.747,8.788c-.29-.019-.618.193-.888.039-.637-.328-.155-.27-.328-.56-.019-.039-.328-.888-.483-1.2a5.874,5.874,0,0,1-.483-3.09c.039-2.337.232-4.365.251-6.876,0-1.68,1.352-2.047,1.236-3.94-3.824.541-2.124-3.071-4.809-4.249,0,.483-1.719,2.549-2.009,3.051a22.451,22.451,0,0,1-1.371,2.24,4.793,4.793,0,0,1-1.835,1.41,3.663,3.663,0,0,1-2.337.193c-.444-.1-1.043-.56-1.371-.56,0-.348.579-1.024.637-1.448.193-1.2-.039-2.511-1.2-2.723,0,1.313.174,1.777-.56,2.646-.135.155-.541.309-.637.483-.367.6.1.888-.077,1.6-.174,0-.541-.676-.637-.637-.483.135-.328.29-.734.753-.367.425-1.178,1.371-1.584.406-.367-.869.618-2.723.985-3.4a6.3,6.3,0,0,1,2.279-2.762,16.933,16.933,0,0,1,3.129-.985c1.97-.464,4.268-1.429,6.489-1.738,1.236-.174,4.094.1,4.172-1.912.058-1.642-2.105-1.024-2.974-.85-.5.1-2.607.309-2.279-.7.019-.058,2.279-1.313,2.182-1.313.174-.753.946-2.105.232-2.878-.039-.039-2.047-.348-1.835-.328a16.72,16.72,0,0,0-6.257.637,4.7,4.7,0,0,0-3.36,3.843c2.472,0,3.689-2.588,6.084-2.762.715-.058,2.878.1,2.491,1a18.2,18.2,0,0,1-2.028,1.2,26.291,26.291,0,0,1-9.116,4.5c-.521.116-2.047.135-2.318.734-.386.869.6,1.333,1.043,1.506,1.139.444,2.163.367,1.2,1.835a20.92,20.92,0,0,1-1.6,1.6,5.32,5.32,0,0,0-.85,1.313c-.444,1.024-.077,1.2.521,1.564,1.429.869.7,1.294.232,2.569a10.758,10.758,0,0,0,.077,4.77,22.037,22.037,0,0,1,.541,3.5c.019.792-.6,2.742-.27,3.361.135.27,2.086.232,2.26.232a9.39,9.39,0,0,0,5.717-1.6c.753-.56,2.009-1.758-.174-1.642-1.2.058-1.043.618-1.835,1.41,0-1.487-1.6.348-1.97.039-.56-.483.193-1.622.444-1.97.464-.657.483-.058.483-1.12,1.835.792,3.843-.328,3.843-2.878.5.232,6.354-6.045,6.644-3.283.135,1.275-1.642,3.36-2.376,4.442a8.2,8.2,0,0,0-1.642,4.867c.734,0,3.689-.927,4.094,0,.039.1-.6,1.217-.637,1.371a5.767,5.767,0,0,0,0,2.569c.1.5.425,1.951.888,2.163,1,.464,1.68-1.719,2.086-2.414.444-.753.618-1.391,1.526-1.275.792.1,1.8.83,2.607.039C120.361,33.265,118.469,32.145,117.136,32.087ZM99.31,23.106a12.894,12.894,0,0,1,0-1.931c.946,0,3.322.155,2.762,2.009-.174.579-.541.6-1.082.715a1.666,1.666,0,0,1-.927.155C99.078,23.9,99.484,24.091,99.31,23.106Zm2.3,4.77c-.618.521-.464.058-1.12-.019-.579-.077-.135.676-.773.309-.541-.309-.174-.7-.019-1.043.251-.56,1.41-.83,1.6-1.6C102.554,25.52,102.4,27.2,101.608,27.876Zm4.172-4.461c-2.105,1.062-2.337-1.661-2.376-2.878.946,0,1.835-.116,2.395.56C106.282,21.677,106.494,23.067,105.78,23.415Zm6.509-4.172c-1.255.135-1.738,1.815-2.318,2.24a3.962,3.962,0,0,1-.792.483c-1.487.309-1.139-1.352-.966-2.24a3.874,3.874,0,0,1,1.371-2.318c.5-.483,1.371-.773,1.526-1.371.637-.1.444-.483.985-.1.7.5.193,1.97.348,2.742.232,1.12,1.062.985,1.236,1.68C112.887,20.383,112.288,20.093,112.288,19.243Z" transform="translate(-0.6 -0.488)"/>
      </g>
      <g id="组_2" data-name="组 2" transform="translate(0.6 0.488)">
        <path id="路径_2" data-name="路径 2" class="cls-3" d="M178.784,32.859c-1.545-1.236-5,.251-6.47-1.024C170.189,30,173.685,29,173.84,27.625c.232-2.2-2.376-.483-2.8-1.893-.386-1.313,1.1-1.294,1.835-1.526,1.352-.444,2.549-.869,3.283-2.086,1.313-2.182-1.159-1.8-2.318-2.414-.966-.5-.7-2.24-.676-3.65.039-2.124,0-4.4-.135-6.412a18.608,18.608,0,0,0-.483-3.322,9.09,9.09,0,0,1-.715-1.835,7.538,7.538,0,0,0-5.7,1.371,9.056,9.056,0,0,0-1.275,1.2c-.869,1-2.24,2.009-2.569,3.689,2.356,0,2.453-2.453,4.365-3.283,1.738-.753,2.124.27,2.414,1.873.116.676.367,2.24-.29,2.7-.425.29-.676-.019-1.12-.155a9.256,9.256,0,0,0-1.371-.328c-.232-.019-.811-.155-1.024-.019-.618.367-.039.386-.425.985a3.413,3.413,0,0,0-.232.328c-.348.5-.773.637-.946,1.082-.348.85.039,2.376-.174,3.245-.5,2.105-2.491,4.191-3.283,6.006-.29.676-1.178,2.549-.328,2.974.464.212,1.8-.541,2.2-.715,1.2-.521,5.891-1.912,3.322.715-.734.753-3.631,2.067-2.878,3.206.792,1.2,5.408.56,4.133,2.646-1.371,2.24-5.659.058-7.822.966a2.26,2.26,0,0,0-1.371,1.68c.077,1.719,1.545.406,2.318.406-.309.657-.773,1.024-.888,1.68,3.418,0,5.659-.618,8.5-.811,3.283-.212,7.59,1.024,10.062-.464C178.455,34.906,179.807,33.69,178.784,32.859ZM167.737,15.091c1.622-.058,1.275.019.869,1.526-.27.985-.367,1.622-1.178.792C166.346,16.308,167.737,15.825,167.737,15.091Zm1.526,8.015a1.444,1.444,0,0,1,1.043-.483c-.6-2.376-5.272.406-5.369-2.723-.483,0-.579.193-.637.637-.406,0-.27-.618-.232-.811a37.8,37.8,0,0,1,4.964-.483c0,1.758,1.082.637,2.009,1.371,1.159.888.232,1.448,2.086,1.448a3.128,3.128,0,0,1-1.8,1.931C170.44,24.342,168.239,24.419,169.262,23.106ZM64.527,19.9c-4.23.425-5.582,3.515-6.257,7.223-.406,2.221-1.448,4.442-1.758,6.74-.251,1.854-.637,5.736,2.318,4.693a8.842,8.842,0,0,0,2.646-1.642,5.529,5.529,0,0,0,2.086-2.878c.29-1.024.657-1.989.966-3.129a31.516,31.516,0,0,0,.908-3.071,13.718,13.718,0,0,0-.019-4.867C65.2,21.947,64.565,21,64.527,19.9Zm80.691,6.721a2.051,2.051,0,0,0-1.275-.155,3.027,3.027,0,0,0-.888.328c-1.68.811-3.38,4.326-5.446,4.326,0-2.781,1-4,2.723-5.446,1.255-1.062,2.665-2.163,3.09-3.534.444-1.429.328-2.221-1.275-2.24-1.294-.019-3.9,1.487-3.727-.637.155-2.028,2.337-4.481,3.534-6.257,1.545-2.318,3.225-4.77,3.843-7.687a10.8,10.8,0,0,1-4.172-1.448c-.734-.464-1.893-1.429-2.549-1.429a4.911,4.911,0,0,1-1.449,1.931c-1.912,1-1.159-1.217-2.24-1.6-1.2-.425-1.12,1.294-1.371,1.758a2.371,2.371,0,0,1-.753.811c-.753.618-2.279.715-3.245.966-.676.174-1.255.155-1.68.715-.7.927-.328,3.4-.116,4.577a12.666,12.666,0,0,0,1,2.723c.386.869.946,1.951,1.526,2.974a4.688,4.688,0,0,0,.56.966c.734.579,1.371.019,2.009-.232.7-.29,2.646-1.468,3.361-.637.676.773-1.642,1.622-2.24,1.835-2.086.811-4.809,1.758-5.6,4.172a8.081,8.081,0,0,0,4.326-1.835c.792-.579,1.738-2.086,2.723-2.086-.56,1.159.348,1.062.715,1.758.232.406.464.908.058,1.294-.077.077-.29.135-.29.212-.483-.521-.154-1.429-.869-1.777-1-.483-.985,1.255-1.371,2.182a4.97,4.97,0,0,1-.7,1.2c-1.2,1.41-3.245,1.912-2.433,4.345-.116,0-.077.077-.154.155-.058-.483-.309-.676-.715-.56,0,1.815-.1,1.68-1.12,2.414-.406.29-1.024.7-.715,1.275,1.062,2.047,3.592-.734,4.094-1.6a21.186,21.186,0,0,1,1.68-3.051c.676-.792,1.719-1.893,1.68.367-.039,2.124-1.294,5.079-.464,6.933a1.588,1.588,0,0,0,2.569.811c1.738-1.236,2.916-3.689,4.828-5.215.985-.792,3.09-1.97,2.472.406-.29,1.12-1.178,1.854-1.275,3.283,2.144,0,2.646-2.182,2.742-4.365.019-.56.212-2.163-.1-2.53C146.2,26.7,145.584,26.737,145.217,26.621ZM140.331,6.593c1.313,0,3.727-.367,2.569,1.448a1.731,1.731,0,0,1-.676.56C140.563,9.394,140.041,8.042,140.331,6.593ZM134.209,9.78c-.27.425-.386.367-1.043.348-1.1-.039-.811.309-1-.966a12.892,12.892,0,0,1,0-1.931c.792.155,1.371-.019,1.893.946A3,3,0,0,1,134.209,9.78ZM139.617,21.5c.946-.135,1.8-.888,2.723-.888-.1,2.646-2.2,3.322-4,4.249C137.241,23.415,139.617,22.2,139.617,21.5ZM136.256,9.316c-1.12-.348.251-1.661.406-2.24.715-.077,1.082-.734,1.835-.232a.936.936,0,0,1,.444,1.2C138.825,8.235,136.159,9.278,136.256,9.316ZM70.765,17.331a5.458,5.458,0,0,0,.077-3.206,7.717,7.717,0,0,0-1.159-2.414c-.155-.212-1.719-1.661-1.719-1.758-1.12-.155-1.8-.637-2.646.155a4.294,4.294,0,0,0-1.2,1.931c-.444,1.506-.676,5.446.966,6.412.657.386,4.326.135,4.886-.155A1.627,1.627,0,0,0,70.765,17.331ZM86.389,23.3c-1.468-.328-2.337-.116-1.758-2.124.174-.618.521-1.217.715-1.758a4.362,4.362,0,0,0,.328-2.376c-.29-1.1-.058-.444-.657-.83-.27-.174-.966.058-.966-.328-2.974,0-5.968-.328-8.169,1.12-.888.579-2.646,2.086-2.395,3.534,2.376-.637,3.766-2.858,5.775-3.689.869-.348,3.225-.792,4,0,.579.579-.425,1.352-1,2.086a14.134,14.134,0,0,1-8.614,5.446,16.638,16.638,0,0,0-2.569.406,3.7,3.7,0,0,0-.908,1.7c-.212.869-.193.908.27,1.429,1.255,1.391,5.06,1.352,7.2,1.2a30.827,30.827,0,0,0,6.972-1.526c.792-.232,1.6-.483,2.318-.715,1.255-.425,3.148-.753,1.371-2.685A3.567,3.567,0,0,0,86.389,23.3Zm30.747,8.788c-.29-.019-.618.193-.888.039-.637-.328-.155-.27-.328-.56-.019-.039-.328-.888-.483-1.2a5.874,5.874,0,0,1-.483-3.09c.039-2.337.232-4.365.251-6.876,0-1.68,1.352-2.047,1.236-3.94-3.824.541-2.124-3.071-4.809-4.249,0,.483-1.719,2.549-2.009,3.051a22.451,22.451,0,0,1-1.371,2.24,4.793,4.793,0,0,1-1.835,1.41,3.663,3.663,0,0,1-2.337.193c-.444-.1-1.043-.56-1.371-.56,0-.348.579-1.024.637-1.448.193-1.2-.039-2.511-1.2-2.723,0,1.313.174,1.777-.56,2.646-.135.155-.541.309-.637.483-.367.6.1.888-.077,1.6-.174,0-.541-.676-.637-.637-.483.135-.328.29-.734.753-.367.425-1.178,1.371-1.584.406-.367-.869.618-2.723.985-3.4a6.3,6.3,0,0,1,2.279-2.762,16.933,16.933,0,0,1,3.129-.985c1.97-.464,4.268-1.429,6.489-1.738,1.236-.174,4.094.1,4.172-1.912.058-1.642-2.105-1.024-2.974-.85-.5.1-2.607.309-2.279-.7.019-.058,2.279-1.313,2.182-1.313.174-.753.946-2.105.232-2.878-.039-.039-2.047-.348-1.835-.328a16.72,16.72,0,0,0-6.257.637,4.7,4.7,0,0,0-3.36,3.843c2.472,0,3.689-2.588,6.084-2.762.715-.058,2.878.1,2.491,1a18.2,18.2,0,0,1-2.028,1.2,26.291,26.291,0,0,1-9.116,4.5c-.521.116-2.047.135-2.318.734-.386.869.6,1.333,1.043,1.506,1.139.444,2.163.367,1.2,1.835a20.92,20.92,0,0,1-1.6,1.6,5.32,5.32,0,0,0-.85,1.313c-.444,1.024-.077,1.2.521,1.564,1.429.869.7,1.294.232,2.569a10.758,10.758,0,0,0,.077,4.77,22.037,22.037,0,0,1,.541,3.5c.019.792-.6,2.742-.27,3.361.135.27,2.086.232,2.26.232a9.39,9.39,0,0,0,5.717-1.6c.753-.56,2.009-1.758-.174-1.642-1.2.058-1.043.618-1.835,1.41,0-1.487-1.6.348-1.97.039-.56-.483.193-1.622.444-1.97.464-.657.483-.058.483-1.12,1.835.792,3.843-.328,3.843-2.878.5.232,6.354-6.045,6.644-3.283.135,1.275-1.642,3.36-2.376,4.442a8.2,8.2,0,0,0-1.642,4.867c.734,0,3.689-.927,4.094,0,.039.1-.6,1.217-.637,1.371a5.767,5.767,0,0,0,0,2.569c.1.5.425,1.951.888,2.163,1,.464,1.68-1.719,2.086-2.414.444-.753.618-1.391,1.526-1.275.792.1,1.8.83,2.607.039C120.361,33.265,118.469,32.145,117.136,32.087ZM99.31,23.106a12.894,12.894,0,0,1,0-1.931c.946,0,3.322.155,2.762,2.009-.174.579-.541.6-1.082.715a1.666,1.666,0,0,1-.927.155C99.078,23.9,99.484,24.091,99.31,23.106Zm2.3,4.77c-.618.521-.464.058-1.12-.019-.579-.077-.135.676-.773.309-.541-.309-.174-.7-.019-1.043.251-.56,1.41-.83,1.6-1.6C102.554,25.52,102.4,27.2,101.608,27.876Zm4.172-4.461c-2.105,1.062-2.337-1.661-2.376-2.878.946,0,1.835-.116,2.395.56C106.282,21.677,106.494,23.067,105.78,23.415Zm6.509-4.172c-1.255.135-1.738,1.815-2.318,2.24a3.962,3.962,0,0,1-.792.483c-1.487.309-1.139-1.352-.966-2.24a3.874,3.874,0,0,1,1.371-2.318c.5-.483,1.371-.773,1.526-1.371.637-.1.444-.483.985-.1.7.5.193,1.97.348,2.742.232,1.12,1.062.985,1.236,1.68C112.887,20.383,112.288,20.093,112.288,19.243Z" transform="translate(-0.6 -0.488)"/>
      </g>
    </g>
  </g>
</svg>
