<svg xmlns="http://www.w3.org/2000/svg" width="20" height="20" viewBox="0 0 20 20">
  <defs>
    <style>
      .cls-1 {
        fill: rgba(158,27,27,0);
      }

      .cls-2 {
        fill: #13548f;
      }
    </style>
  </defs>
  <g id="mail_icon_" data-name="mail_icon " transform="translate(-154.799 -96.9)">
    <rect id="矩形_105" data-name="矩形 105" class="cls-1" width="20" height="20" transform="translate(154.799 96.9)"/>
    <path id="路径_150" data-name="路径 150" class="cls-2" d="M65.1,171.8h16a1.928,1.928,0,0,1,2,1.8l-10,5.1-9.994-5.091A1.918,1.918,0,0,1,65.1,171.8Zm-1.991,3.759-.009,9.014a1.923,1.923,0,0,0,2,1.824h16a1.923,1.923,0,0,0,2-1.824v-9.018l-9.761,4.859a.536.536,0,0,1-.479,0Z" transform="translate(91.699 -71.9)"/>
  </g>
</svg>
