<svg xmlns="http://www.w3.org/2000/svg" width="20" height="20" viewBox="0 0 20 20">
  <defs>
    <style>
      .cls-1 {
        fill: rgba(158,27,27,0);
      }

      .cls-2 {
        fill: #13548f;
      }
    </style>
  </defs>
  <g id="name_icon" transform="translate(-64.5 -67.599)">
    <rect id="矩形_105" data-name="矩形 105" class="cls-1" width="20" height="20" transform="translate(64.5 67.599)"/>
    <path id="路径_146" data-name="路径 146" class="cls-2" d="M285.1,103.369a5.466,5.466,0,1,0,5.466-5.469A5.466,5.466,0,0,0,285.1,103.369Z" transform="translate(-216.3 -30.224)"/>
    <path id="路径_147" data-name="路径 147" class="cls-2" d="M171.5,555.529a70.519,70.519,0,0,1-10.817.116c-2.221-.116-3.479-.379-3.887-1.9,0-2.924,2.4-7.045,5.292-7.045l2.279.7a5.4,5.4,0,0,0,1.929,0l2.427-.7c2.924,0,5.292,4.15,5.292,7.045C174.075,554.974,173.2,555.266,171.5,555.529Z" transform="translate(-91.097 -468.188)"/>
  </g>
</svg>
