<svg xmlns="http://www.w3.org/2000/svg" width="20" height="20" viewBox="0 0 20 20">
  <defs>
    <style>
      .cls-1 {
        fill: rgba(158,27,27,0);
      }

      .cls-2 {
        fill: #13548f;
      }
    </style>
  </defs>
  <g id="tel_icon" transform="translate(-64.5 -67.599)">
    <rect id="矩形_105" data-name="矩形 105" class="cls-1" width="20" height="20" transform="translate(64.5 67.599)"/>
    <path id="路径_148" data-name="路径 148" class="cls-2" d="M81,64H67a3,3,0,0,0-3,3V81a3,3,0,0,0,3,3H81a3,3,0,0,0,3-3V67A3,3,0,0,0,81,64ZM66.277,80.33H64.009V79h2.269Zm0-2.668H64.943V76.328h1.334Zm0-2.669H64.009V73.659h2.269Zm0-2.669H64.943V70.991h1.334Zm0-2.668H64.009V68.323h2.269ZM79.028,80.32c-1.659,0-5.021-1.7-6.634-3.316s-3.317-4.976-3.317-6.634c0,0,1.271-2.047,2.1-2.047s3.317,2.488,2.488,3.317-1.659.829-1.659,1.658.829,1.658,1.659,2.488,1.659,1.659,2.488,1.659.829-.829,1.659-1.659,3.317,1.659,3.317,2.488S79.028,80.32,79.028,80.32Z" transform="translate(0.5 3.599)"/>
  </g>
</svg>
