<svg xmlns="http://www.w3.org/2000/svg" width="20" height="20" viewBox="0 0 20 20">
  <defs>
    <style>
      .cls-1 {
        fill: rgba(165,68,68,0);
      }

      .cls-2 {
        fill: #4858ef;
      }
    </style>
  </defs>
  <g id="tianjiachengyuan_icon" transform="translate(-2193 -251)">
    <rect id="矩形_123" data-name="矩形 123" class="cls-1" width="20" height="20" transform="translate(2193 251)"/>
    <g id="组_109" data-name="组 109" transform="translate(2080.42 138.714)">
      <path id="路径_168" data-name="路径 168" class="cls-2" d="M583.425,580.188h-2.437V577.75a.75.75,0,1,0-1.5,0v2.438H577.05a.75.75,0,0,0,0,1.5h2.438v2.437a.75.75,0,1,0,1.5,0v-2.437h2.438a.75.75,0,0,0,0-1.5Z" transform="translate(-451.875 -453.151)"/>
      <path id="路径_169" data-name="路径 169" class="cls-2" d="M122.74,112.976a5.438,5.438,0,0,0-2.92,9.9,9.384,9.384,0,0,0-6.237,8.03.75.75,0,1,0,1.5.127,7.889,7.889,0,0,1,7.774-7.181,5.506,5.506,0,0,0,5.508-5.442A5.435,5.435,0,0,0,122.74,112.976Zm.185,9.373a3.938,3.938,0,1,1,3.938-3.937A3.943,3.943,0,0,1,122.925,122.348Z" transform="translate(0 0)"/>
    </g>
  </g>
</svg>
