<svg id="xiugai_icon" xmlns="http://www.w3.org/2000/svg" width="20" height="20" viewBox="0 0 20 20">
  <defs>
    <style>
      .cls-1 {
        fill: rgba(165,68,68,0);
      }

      .cls-2 {
        fill: #1c8d0a;
        stroke: #1c8d0a;
        stroke-width: 0.3px;
      }
    </style>
  </defs>
  <rect id="矩形_123" data-name="矩形 123" class="cls-1" width="20" height="20"/>
  <path id="路径_142" data-name="路径 142" class="cls-2" d="M1.386,10.206,11.2.4a1.171,1.171,0,0,1,1.767,0l2.65,2.648a1.169,1.169,0,0,1,0,1.765l-9.81,9.8L.916,15.97c-.678.144-1.028-.205-.883-.883l1.352-4.882m.977.789-1,3.644,3.647-1-2.65-2.648M14.287,4.375c.458-.454.43-.447,0-.883L12.521,1.727c-.419-.446-.461-.45-.883,0L9.871,3.492l2.65,2.648ZM5.9,12.76l5.741-5.737L8.987,4.375,3.246,10.112Z" transform="translate(1.999 1.999)"/>
</svg>
